<svg width="16" height="16" viewBox="0 0 16 16" fill="none" xmlns="http://www.w3.org/2000/svg">
<circle cx="8" cy="8" r="8" fill="#F6DE70"/>
<path d="M6.80549 6.77142C6.80549 6.77142 6.27825 3.8169 4.54877 3.66797C4.54877 3.66797 4.06365 5.53847 6.80549 6.77142Z" fill="black"/>
<path d="M7.91201 6.64628C7.91201 6.64628 9.48182 2.63445 7.84082 1.08594C7.84082 1.08594 6.04307 3.10756 7.91201 6.64628Z" fill="black"/>
<path d="M11.7775 10.6553C13.3935 10.6553 14.7034 9.32374 14.7034 7.68117C14.7034 6.0386 13.3935 4.70703 11.7775 4.70703C10.1616 4.70703 8.85156 6.0386 8.85156 7.68117C8.85156 9.32374 10.1616 10.6553 11.7775 10.6553Z" fill="black"/>
<path d="M6.08988 7.9375C6.08988 7.9375 5.55157 11.4247 8.28385 12.7856C11.0161 14.1465 13.9969 12.9131 14.8247 11.2548C14.8247 11.2548 13.2308 11.9777 11.3473 11.6375C10.6477 11.511 9.99422 11.2986 9.41328 10.8711C9.08813 10.6318 8.79352 10.3495 8.53869 10.0331C8.28385 9.71674 8.11141 9.38566 7.87439 9.07714C7.43216 8.5016 6.84167 7.95842 6.08957 7.9375H6.08988Z" fill="black"/>
<path d="M0.703125 5.8817C0.703125 5.8817 3.11023 5.72285 4.47846 6.63454C4.97426 6.96485 5.24963 7.54881 5.19373 8.147C5.14485 8.66755 5.15795 9.19586 5.23781 9.71285C5.34515 10.4078 5.57963 11.0836 5.95755 11.6757C6.4345 12.423 7.12388 12.9995 7.90719 13.3936C8.52342 13.7038 9.1831 13.9238 9.86259 14.0357C9.24029 14.3078 8.48701 14.4127 7.81391 14.4052C6.42364 14.3903 4.96979 13.8805 3.95424 12.9002C3.86223 12.8112 3.77342 12.7187 3.68845 12.6226C3.23418 12.1082 2.88917 11.4961 2.67928 10.8397C2.56939 10.4961 2.50582 10.1564 2.4908 9.79632C2.47355 9.38771 2.50742 8.97781 2.46972 8.56985C2.46908 8.56176 2.46812 8.55335 2.46748 8.54526C2.35184 7.37961 1.61517 6.54298 0.703445 5.8817H0.703125Z" fill="black"/>
</svg>
