<?xml version="1.0" encoding="UTF-8"?>
<svg id="Layer_3" data-name="Layer 3" xmlns="http://www.w3.org/2000/svg" viewBox="0 0 792 172">
  <defs>
    <style>
      .cls-1 {
        fill: none;
        stroke: #000;
        stroke-linecap: round;
        stroke-linejoin: round;
        stroke-width: 5px;
      }

      .cls-2 {
        fill: #000;
        stroke-width: 0px;
      }
    </style>
  </defs>
  <circle class="cls-1" cx="509.5" cy="103.5" r="8"/>
  <circle class="cls-1" cx="107.5" cy="28.5" r="7"/>
  <circle class="cls-1" cx="135.5" cy="18.5" r="7"/>
  <circle class="cls-1" cx="509.5" cy="144.5" r="11"/>
  <path class="cls-1" d="M302.08,8.06c-21.87,28.04-50.44,75.57-11.83,104.05"/>
  <path class="cls-1" d="M305.66,117.74c4.61,2.48,8.78,6.24,10.49,11.18.7,2.04.86,4.57-.67,6.1-.97.97-2.45,1.31-3.82,1.15s-2.64-.77-3.83-1.46c-5.05-2.93-8.9-7.44-12.04-12.28-1.52-2.35-3.47-5.02-4.43-7.67s2.13-1.71,3.93-1.15c3.54,1.1,7.1,2.37,10.37,4.13Z"/>
  <path class="cls-1" d="M279.75,114.85c.01,5.23-1.31,10.69-4.84,14.54-1.46,1.59-3.61,2.93-5.68,2.31-1.32-.39-2.32-1.53-2.83-2.81s-.58-2.69-.54-4.06c.17-5.83,2.31-11.37,5.08-16.43,1.34-2.46,2.77-5.44,4.64-7.54s2.52,1.06,2.88,2.9c.72,3.64,1.29,7.37,1.3,11.09Z"/>
  <path class="cls-1" d="M263.59,88.82c-2.82,4.41-6.88,8.29-11.94,9.61-2.09.55-4.62.51-6.03-1.13-.9-1.04-1.12-2.54-.86-3.89s.96-2.58,1.74-3.71c3.3-4.81,8.09-8.31,13.16-11.08,2.46-1.34,5.27-3.08,7.98-3.84s1.54,2.26.85,4c-1.36,3.45-2.9,6.9-4.9,10.03Z"/>
  <path class="cls-1" d="M268.65,54.66c-3.97,3.4-8.99,5.94-14.21,5.74-2.16-.08-4.57-.85-5.45-2.83-.56-1.26-.33-2.76.31-3.98s1.67-2.19,2.74-3.05c4.55-3.65,10.15-5.61,15.8-6.79,2.74-.57,5.94-1.42,8.75-1.36s.82,2.61-.34,4.08c-2.3,2.91-4.78,5.76-7.6,8.18Z"/>
  <path class="cls-1" d="M293.46,92.42c5.04-1.39,10.66-1.55,15.31.85,1.92.99,3.78,2.72,3.73,4.87-.03,1.38-.87,2.64-1.97,3.47s-2.44,1.27-3.78,1.59c-5.67,1.37-11.57.76-17.19-.58-2.73-.65-5.98-1.24-8.5-2.49s.36-2.71,2.05-3.54c3.32-1.65,6.77-3.18,10.36-4.17Z"/>
  <path class="cls-1" d="M284.46,69.42c5.04-1.39,10.66-1.55,15.31.85,1.92.99,3.78,2.72,3.73,4.87-.03,1.38-.87,2.64-1.97,3.47s-2.44,1.27-3.78,1.59c-5.67,1.37-11.57.76-17.19-.58-2.73-.65-5.98-1.24-8.5-2.49s.36-2.71,2.05-3.54c3.32-1.65,6.77-3.18,10.36-4.17Z"/>
  <path class="cls-1" d="M295.33,45.91c4.79,1.27,9.2,3.39,11.15,6.45.8,1.26,1.07,2.88-.41,3.96-.95.69-2.43,1.01-3.83,1s-2.72-.31-3.96-.67c-5.26-1.53-9.37-4.16-12.77-7.05-1.65-1.4-3.75-2.98-4.84-4.62s2.09-1.25,3.94-1.01c3.65.46,7.31,1.03,10.72,1.93Z"/>
  <polygon class="cls-1" points="664.01 13.01 668.33 24.69 680 29.01 668.33 33.33 664.01 45 659.69 33.33 648.01 29.01 659.69 24.69 664.01 13.01"/>
  <polyline class="cls-1" points="125.38 137.12 100.52 150.64 134.01 101.37 72.65 130.93 144.13 39.06 104 55.68"/>
  <circle class="cls-1" cx="70.5" cy="73.5" r="9"/>
  <line class="cls-1" x1="60.21" y1="94.69" x2="34.19" y2="127.41"/>
  <line class="cls-1" x1="82.04" y1="11.14" x2="76" y2="52.51"/>
  <path class="cls-1" d="M46.95,81.97c0,.13-26.5,7.55-26.5,7.55"/>
  <path class="cls-1" d="M47.66,28.34c-.09.09,11.55,25.02,11.55,25.02"/>
  <line class="cls-1" x1="48.02" y1="64.13" x2="23.42" y2="55.03"/>
  <circle class="cls-1" cx="152.72" cy="115.62" r="7"/>
  <circle class="cls-1" cx="218.61" cy="73.51" r="9.89"/>
  <path class="cls-1" d="M318.84,64.05c13.57,32.86,40.8,81.18,84.62,61.69"/>
  <path class="cls-1" d="M415.97,115.12c4.43-2.78,9.76-4.56,14.9-3.59,2.12.4,4.4,1.51,4.97,3.59.37,1.33-.07,2.78-.89,3.89s-1.97,1.92-3.16,2.61c-5.04,2.94-10.86,4.06-16.63,4.4-2.8.16-6.08.54-8.86.06s-.43-2.7.94-3.98c2.7-2.54,5.57-5,8.72-6.97Z"/>
  <path class="cls-1" d="M400.66,136.22c4.56,2.57,8.65,6.42,10.25,11.4.66,2.05.76,4.59-.79,6.08-.99.95-2.48,1.26-3.84,1.07s-2.62-.82-3.8-1.53c-4.99-3.03-8.74-7.62-11.78-12.53-1.48-2.38-3.37-5.1-4.27-7.76s2.17-1.66,3.95-1.07c3.52,1.17,7.05,2.52,10.28,4.35Z"/>
  <path class="cls-1" d="M370.05,137.41c2.44,4.63,3.81,10.08,2.46,15.13-.56,2.09-1.84,4.27-3.96,4.69-1.35.26-2.77-.28-3.81-1.18s-1.76-2.11-2.37-3.35c-2.56-5.24-3.23-11.14-3.13-16.91.05-2.8-.08-6.11.61-8.84s2.72-.23,3.9,1.24c2.33,2.89,4.56,5.93,6.3,9.22Z"/>
  <path class="cls-1" d="M342.85,116.13c1,5.14.72,10.75-2.03,15.2-1.14,1.84-3,3.56-5.15,3.34-1.37-.14-2.57-1.07-3.3-2.23s-1.08-2.53-1.29-3.89c-.93-5.76.14-11.6,1.9-17.09.86-2.67,1.7-5.87,3.14-8.28,1.52-2.53,2.67.57,3.37,2.31,1.39,3.44,2.65,7,3.36,10.65Z"/>
  <path class="cls-1" d="M387.93,113.22c1.28-5.07,3.92-10.03,8.3-12.89,1.81-1.18,4.23-1.94,6.08-.83,1.18.71,1.87,2.06,2.04,3.43s-.1,2.75-.48,4.07c-1.61,5.61-5.06,10.44-8.99,14.66-1.91,2.05-4.03,4.59-6.37,6.16s-2.17-1.65-2.07-3.53c.2-3.7.58-7.46,1.49-11.06Z"/>
  <path class="cls-1" d="M363.49,109.68c1.28-5.07,3.92-10.03,8.3-12.89,1.81-1.18,4.23-1.94,6.08-.83,1.18.71,1.87,2.06,2.04,3.43s-.1,2.75-.48,4.07c-1.61,5.61-5.06,10.44-8.99,14.66-1.91,2.05-4.03,4.59-6.37,6.16s-2.17-1.65-2.07-3.53c.2-3.7.58-7.46,1.49-11.06Z"/>
  <path class="cls-1" d="M348.41,88.61c3.47-3.54,7.49-6.32,11.11-6.5,1.49-.08,3.03.49,3.24,2.31.14,1.16-.32,2.62-1.02,3.82s-1.61,2.21-2.53,3.11c-3.92,3.82-8.24,6.09-12.44,7.62-2.04.74-4.45,1.78-6.4,1.92s-.05-2.43,1.06-3.92c2.2-2.95,4.51-5.85,6.97-8.36Z"/>
  <path class="cls-2" d="M603.35,18.37l10.86,9.47c.34.29.85.27,1.15-.06l7.6-8.08c.48-.51.16-1.34-.53-1.4l-3.9-.35c-.6-.05-.95-.71-.65-1.24l3.62-6.36c.42-.73-.39-1.55-1.13-1.14l-6.97,3.9c-.51.29-1.15-.03-1.23-.61l-.56-3.92c-.1-.73-1.04-.97-1.48-.39l-6.91,9.03c-.27.35-.22.84.11,1.13Z"/>
  <circle class="cls-1" cx="682.5" cy="130.5" r="7"/>
  <path class="cls-1" d="M699.31,43.81l14.89.96-6.77-25.24,21.66,7.71-.91-16.31c4.99,2.38,9.84,5.55,14.13,9.19,11.22,9.51,14.24,26.32,4.69,37.56-6.4,7.53-17.92,10.94-27.54,8.27-14.29-3.96-20.16-22.14-20.16-22.14Z"/>
  <path class="cls-1" d="M688.8,87.78l8.8,1.79-2.11-15.77,12.32,6.4.7-9.91c2.79,1.84,5.44,4.14,7.72,6.69,5.96,6.64,6.48,17.03-.07,23.04-4.39,4.02-11.51,5.15-17.04,2.76-8.22-3.55-10.33-14.99-10.33-14.99Z"/>
  <path class="cls-1" d="M669,157.83c12.59,2.92,26.59,3.38,38.53-2.26,12.95-6.12,21.74-18.65,18.94-33.22-1.5-7.82-5.3-15.09-9.55-21.74"/>
  <path class="cls-1" d="M679.47,159.29c20.92,2.53,43.76.18,61.75-11.58,17.33-11.33,28.18-32.19,22.75-52.89-3.35-12.74-11.09-23.84-19.03-34.14"/>
  <polygon class="cls-1" points="418.04 23.72 430.94 46.42 405.23 50.98 430.4 57.91 415.45 79.32 438.15 66.42 442.71 92.12 449.64 66.96 471.04 81.91 458.15 59.21 483.85 54.65 458.68 47.72 473.63 26.32 450.93 39.21 446.38 13.51 439.44 38.68 418.04 23.72"/>
  <path class="cls-1" d="M559.82,45.83s12.33-18.03,28.88-19.92c7.86-.89,14.31,1.99,19.51,8.95,3.12,4.18,5.44,8.92,8.9,12.84,3.51,3.98,7.5,7.37,11.8,10.08,13.45,8.49,26.8,7.47,41.42,4.95,1.67,9.03-8.28,23.77-13.2,29.94-16.16,20.24-39.08,24.37-60.4,14.86-6.51-2.9-12.66-7.4-16.81-13.95-2.87-4.53-4.7-10.13-4.83-15.84-.14-6.34,2.56-12.15,2.43-18.53-.25-11.86-9.32-14.82-17.7-13.39Z"/>
  <path class="cls-1" d="M587.81,103.55h0c-8.02,1.56-20.15,16.68-20.15,16.68"/>
  <path class="cls-1" d="M610.94,164s11.08-12.44-.79-24.41l17.68-11.86,13.06,18.89-6.68,4.55s-6.01-6.35-5.53-4.15c.49,2.2,4.3,15.95-17.75,16.98Z"/>
  <path class="cls-1" d="M537.83,108.68s10.47,12.95,24.21,3.18l8.84,19.37-20.76,9.83-3.41-7.32s7.24-4.9,5-4.78-16.43,1.65-13.88-20.27Z"/>
  <path class="cls-1" d="M614.37,113.21c-2.77,1.75-5.93,4.28-6.71,7.63-1.36,5.81,5.33,9.72,9.64,11.83"/>
  <circle class="cls-2" cx="591.3" cy="43.51" r="4.55"/>
  <line class="cls-1" x1="539.6" y1="44.23" x2="498.6" y2="44.97"/>
  <line class="cls-1" x1="542.55" y1="58.35" x2="506.82" y2="75.31"/>
  <line class="cls-1" x1="542" y1="31.04" x2="505.39" y2="16.06"/>
  <path class="cls-1" d="M317.38,34.21c3.87-5.3,9.3-9.21,15.08-12.19s12.85-6.52,19.13-6.74c.65-.02,1.34,0,1.89.36.82.52,1.11,1.63.93,2.59-1.02,5.43-6.6,11.11-9.98,15.24-4.1,5.02-8.38,10.03-11.05,15.99-.48,1.07-.92,2.25-.7,3.41.41,2.14,3.01,3.26,5.14,2.82s3.84-2,5.34-3.57c7.13-7.46,12.24-16.73,20.12-23.49,3.27-2.81,14.97-11.71,16.89-3.18.9,4-1.23,9.28-1.94,13.22-.99,5.47-1.67,11.05-1.21,16.61.71,8.53,5.09,14.33,10.99,20.17"/>
  <path class="cls-1" d="M247.42,16.93c-2.12,4.65-5.97,8.27-10.05,11.34-11.41,8.6-26.82,15.2-41.33,14.6-5.54-.23-11.17-1.92-15.34-5.58s-6.61-9.5-5.41-14.91c.93-4.17,3.89-7.72,7.52-9.97,3.98-2.46,9.16-4.21,13.87-4.09,7.15.18,9.44,6.81,9.24,13.05-.23,7.46-2.33,15.49-5.57,22.21-5.43,11.25-15.92,19.19-20.78,30.84-1.61,3.87-2.66,8.28-2.56,12.48.08,3.26,1.03,6.59,3.18,9.04,3.39,3.85,8.95,4.81,14.06,5.19s10.55.51,14.84,3.34c3.56,2.34,5.83,6.33,6.67,10.51s.37,8.53-.7,12.65c-.86,3.29-2.09,6.49-2.78,9.82s-.8,6.91.55,10.03c3.36,7.8,13.45,9.89,20.98,10.67,11.19,1.16,22.47,1.52,33.71,1.07"/>
  <line class="cls-1" x1="196.5" y1="122.5" x2="188.5" y2="162.5"/>
  <line class="cls-1" x1="182.12" y1="120.23" x2="150.6" y2="157.29"/>
  <circle class="cls-2" cx="451.3" cy="133.51" r="4.55"/>
  <circle class="cls-2" cx="466.3" cy="114.51" r="4.55"/>
  <circle class="cls-2" cx="771.3" cy="58.51" r="4.55"/>
  <circle class="cls-2" cx="546.3" cy="86.51" r="4.55"/>
  <circle class="cls-2" cx="573.3" cy="154.51" r="4.55"/>
  <circle class="cls-2" cx="152.3" cy="68.51" r="4.55"/>
  <circle class="cls-2" cx="240.3" cy="130.51" r="4.55"/>
  <circle class="cls-2" cx="37.3" cy="154.51" r="4.55"/>
  <circle class="cls-2" cx="52.8" cy="154.51" r="4.55"/>
  <circle class="cls-2" cx="68.3" cy="154.51" r="4.55"/>
  <path class="cls-1" d="M457.07,146.7s27-4.06,26.11-32.03"/>
</svg>