<svg width="1824" height="396" viewBox="0 0 1824 396" fill="none" xmlns="http://www.w3.org/2000/svg">
<path d="M1173.04 256.71C1183.21 256.71 1191.45 248.464 1191.45 238.292C1191.45 228.119 1183.21 219.873 1173.04 219.873C1162.86 219.873 1154.62 228.119 1154.62 238.292C1154.62 248.464 1162.86 256.71 1173.04 256.71Z" stroke="black" stroke-width="11.5116" stroke-linecap="round" stroke-linejoin="round"/>
<path d="M247.499 81.7326C256.4 81.7326 263.615 74.5171 263.615 65.6163C263.615 56.7155 256.4 49.5 247.499 49.5C238.598 49.5 231.383 56.7155 231.383 65.6163C231.383 74.5171 238.598 81.7326 247.499 81.7326Z" stroke="black" stroke-width="11.5116" stroke-linecap="round" stroke-linejoin="round"/>
<path d="M311.968 58.7091C320.869 58.7091 328.084 51.4936 328.084 42.5928C328.084 33.6921 320.869 26.4766 311.968 26.4766C303.067 26.4766 295.852 33.6921 295.852 42.5928C295.852 51.4936 303.067 58.7091 311.968 58.7091Z" stroke="black" stroke-width="11.5116" stroke-linecap="round" stroke-linejoin="round"/>
<path d="M1173.04 358.012C1187.02 358.012 1198.36 346.674 1198.36 332.687C1198.36 318.7 1187.02 307.361 1173.04 307.361C1159.05 307.361 1147.71 318.7 1147.71 332.687C1147.71 346.674 1159.05 358.012 1173.04 358.012Z" stroke="black" stroke-width="11.5116" stroke-linecap="round" stroke-linejoin="round"/>
<path d="M695.488 18.5566C645.136 83.1138 579.358 192.543 668.251 258.114" stroke="black" stroke-width="11.5116" stroke-linecap="round" stroke-linejoin="round"/>
<path d="M703.73 271.076C714.344 276.786 723.945 285.443 727.882 296.816C729.493 301.513 729.862 307.338 726.339 310.861C724.106 313.094 720.698 313.877 717.544 313.508C714.39 313.14 711.466 311.735 708.726 310.147C697.099 303.401 688.236 293.018 681.006 281.874C677.507 276.464 673.017 270.317 670.807 264.215C668.597 258.114 675.711 260.278 679.855 261.568C688.005 264.1 696.202 267.024 703.73 271.076Z" stroke="black" stroke-width="11.5116" stroke-linecap="round" stroke-linejoin="round"/>
<path d="M644.079 264.422C644.102 276.463 641.063 289.034 632.936 297.898C629.575 301.558 624.625 304.643 619.859 303.216C616.82 302.318 614.517 299.693 613.343 296.746C612.169 293.799 612.008 290.553 612.1 287.399C612.491 273.976 617.418 261.221 623.796 249.572C626.881 243.908 630.173 237.047 634.479 232.212C638.784 227.377 640.28 234.653 641.109 238.889C642.767 247.269 644.079 255.857 644.102 264.422H644.079Z" stroke="black" stroke-width="11.5116" stroke-linecap="round" stroke-linejoin="round"/>
<path d="M606.869 204.492C600.376 214.646 591.029 223.579 579.379 226.618C574.567 227.884 568.742 227.792 565.496 224.016C563.424 221.622 562.917 218.168 563.516 215.06C564.115 211.952 565.726 209.12 567.522 206.518C575.12 195.444 586.148 187.386 597.821 181.009C603.484 177.924 609.954 173.917 616.193 172.168C622.433 170.418 619.739 177.371 618.15 181.377C615.019 189.32 611.473 197.263 606.869 204.469V204.492Z" stroke="black" stroke-width="11.5116" stroke-linecap="round" stroke-linejoin="round"/>
<path d="M618.518 125.844C609.377 133.672 597.82 139.52 585.802 139.06C580.829 138.876 575.28 137.103 573.254 132.544C571.965 129.643 572.494 126.19 573.968 123.381C575.441 120.572 577.812 118.339 580.276 116.359C590.752 107.955 603.645 103.443 616.653 100.726C622.961 99.4137 630.329 97.4567 636.798 97.5948C643.268 97.733 638.686 103.604 636.015 106.988C630.72 113.688 625.01 120.25 618.518 125.821V125.844Z" stroke="black" stroke-width="11.5116" stroke-linecap="round" stroke-linejoin="round"/>
<path d="M675.644 212.78C687.248 209.58 700.187 209.211 710.892 214.737C715.313 217.016 719.595 220.999 719.48 225.949C719.411 229.127 717.477 232.028 714.945 233.938C712.412 235.849 709.327 236.862 706.242 237.599C693.188 240.753 679.604 239.349 666.665 236.264C660.379 234.767 652.897 233.409 647.095 230.531C641.293 227.653 647.924 224.292 651.815 222.381C659.459 218.582 667.402 215.059 675.667 212.78H675.644Z" stroke="black" stroke-width="11.5116" stroke-linecap="round" stroke-linejoin="round"/>
<path d="M654.917 159.827C666.521 156.627 679.46 156.258 690.166 161.784C694.586 164.063 698.869 168.046 698.754 172.996C698.685 176.173 696.751 179.074 694.218 180.985C691.685 182.896 688.6 183.909 685.515 184.646C672.461 187.8 658.877 186.396 645.938 183.311C639.653 181.814 632.17 180.456 626.369 177.578C620.567 174.7 627.197 171.339 631.088 169.428C638.732 165.629 646.675 162.106 654.94 159.827H654.917Z" stroke="black" stroke-width="11.5116" stroke-linecap="round" stroke-linejoin="round"/>
<path d="M679.943 105.701C690.971 108.625 701.125 113.506 705.614 120.551C707.456 123.452 708.078 127.182 704.67 129.668C702.483 131.257 699.075 131.994 695.852 131.971C692.629 131.947 689.59 131.257 686.735 130.428C674.625 126.905 665.162 120.85 657.334 114.197C653.535 110.973 648.701 107.336 646.191 103.56C643.681 99.784 651.003 100.682 655.262 101.234C663.666 102.294 672.092 103.606 679.943 105.678V105.701Z" stroke="black" stroke-width="11.5116" stroke-linecap="round" stroke-linejoin="round"/>
<path d="M1528.77 29.9531L1538.71 56.8443L1565.58 66.7903L1538.71 76.7364L1528.77 103.605L1518.82 76.7364L1491.93 66.7903L1518.82 56.8443L1528.77 29.9531Z" stroke="black" stroke-width="11.5116" stroke-linecap="round" stroke-linejoin="round"/>
<path d="M288.667 315.696L231.431 346.823L308.536 233.388L167.266 301.444L331.836 89.9297L239.444 128.194" stroke="black" stroke-width="11.5116" stroke-linecap="round" stroke-linejoin="round"/>
<path d="M162.315 189.942C173.759 189.942 183.036 180.665 183.036 169.221C183.036 157.777 173.759 148.5 162.315 148.5C150.871 148.5 141.594 157.777 141.594 169.221C141.594 180.665 150.871 189.942 162.315 189.942Z" stroke="black" stroke-width="11.5116" stroke-linecap="round" stroke-linejoin="round"/>
<path d="M138.625 218.008L78.7188 293.34" stroke="black" stroke-width="11.5116" stroke-linecap="round" stroke-linejoin="round"/>
<path d="M188.883 25.6484L174.977 120.896" stroke="black" stroke-width="11.5116" stroke-linecap="round" stroke-linejoin="round"/>
<path d="M108.098 188.721C108.098 189.02 47.0859 206.103 47.0859 206.103" stroke="black" stroke-width="11.5116" stroke-linecap="round" stroke-linejoin="round"/>
<path d="M109.728 65.248C109.521 65.4553 136.32 122.852 136.32 122.852" stroke="black" stroke-width="11.5116" stroke-linecap="round" stroke-linejoin="round"/>
<path d="M110.559 147.648L53.9219 126.697" stroke="black" stroke-width="11.5116" stroke-linecap="round" stroke-linejoin="round"/>
<path d="M351.608 282.311C360.509 282.311 367.725 275.095 367.725 266.194C367.725 257.294 360.509 250.078 351.608 250.078C342.708 250.078 335.492 257.294 335.492 266.194C335.492 275.095 342.708 282.311 351.608 282.311Z" stroke="black" stroke-width="11.5116" stroke-linecap="round" stroke-linejoin="round"/>
<path d="M503.309 192.015C515.885 192.015 526.079 181.82 526.079 169.245C526.079 156.669 515.885 146.475 503.309 146.475C490.734 146.475 480.539 156.669 480.539 169.245C480.539 181.82 490.734 192.015 503.309 192.015Z" stroke="black" stroke-width="11.5116" stroke-linecap="round" stroke-linejoin="round"/>
<path d="M734.07 147.465C765.313 223.119 828.005 334.368 928.893 289.495" stroke="black" stroke-width="11.5116" stroke-linecap="round" stroke-linejoin="round"/>
<path d="M957.702 265.044C967.901 258.644 980.173 254.546 992.007 256.779C996.888 257.7 1002.14 260.256 1003.45 265.044C1004.3 268.107 1003.29 271.445 1001.4 274C999.512 276.556 996.865 278.421 994.125 280.01C982.521 286.778 969.122 289.357 955.837 290.14C949.391 290.508 941.839 291.383 935.438 290.278C929.038 289.173 934.448 284.062 937.603 281.115C943.819 275.267 950.427 269.603 957.679 265.067L957.702 265.044Z" stroke="black" stroke-width="11.5116" stroke-linecap="round" stroke-linejoin="round"/>
<path d="M922.447 313.623C932.946 319.54 942.362 328.404 946.046 339.87C947.565 344.59 947.796 350.437 944.227 353.868C941.948 356.055 938.517 356.769 935.386 356.331C932.255 355.894 929.354 354.444 926.637 352.809C915.149 345.833 906.515 335.265 899.516 323.961C896.108 318.481 891.757 312.219 889.685 306.095C887.613 299.97 894.681 302.273 898.779 303.631C906.883 306.325 915.01 309.433 922.447 313.646V313.623Z" stroke="black" stroke-width="11.5116" stroke-linecap="round" stroke-linejoin="round"/>
<path d="M851.972 316.362C857.59 327.022 860.744 339.57 857.636 351.197C856.347 356.008 853.4 361.028 848.519 361.995C845.411 362.593 842.141 361.35 839.747 359.278C837.353 357.206 835.695 354.42 834.291 351.565C828.397 339.501 826.854 325.917 827.084 312.633C827.199 306.186 826.9 298.565 828.489 292.28C830.077 285.995 834.751 291.751 837.468 295.135C842.832 301.789 847.966 308.788 851.972 316.362Z" stroke="black" stroke-width="11.5116" stroke-linecap="round" stroke-linejoin="round"/>
<path d="M789.349 267.369C791.651 279.203 791.007 292.119 784.675 302.364C782.051 306.6 777.768 310.56 772.818 310.054C769.664 309.732 766.901 307.59 765.221 304.92C763.54 302.249 762.734 299.095 762.251 295.964C760.11 282.702 762.573 269.257 766.625 256.617C768.605 250.47 770.539 243.102 773.854 237.554C777.354 231.729 780.002 238.866 781.613 242.872C784.813 250.792 787.714 258.988 789.349 267.392V267.369Z" stroke="black" stroke-width="11.5116" stroke-linecap="round" stroke-linejoin="round"/>
<path d="M893.144 260.669C896.091 248.996 902.169 237.576 912.254 230.992C916.421 228.275 921.992 226.525 926.252 229.081C928.968 230.715 930.557 233.824 930.948 236.978C931.34 240.132 930.718 243.309 929.843 246.348C926.137 259.264 918.194 270.385 909.145 280.1C904.748 284.82 899.867 290.668 894.48 294.283C889.092 297.897 889.484 290.484 889.714 286.155C890.174 277.637 891.049 268.98 893.144 260.692V260.669Z" stroke="black" stroke-width="11.5116" stroke-linecap="round" stroke-linejoin="round"/>
<path d="M836.871 252.518C839.818 240.846 845.896 229.426 855.98 222.841C860.147 220.125 865.719 218.375 869.978 220.93C872.695 222.565 874.284 225.673 874.675 228.827C875.066 231.982 874.445 235.159 873.57 238.198C869.863 251.114 861.92 262.234 852.872 271.95C848.475 276.67 843.594 282.518 838.206 286.132C832.819 289.747 833.21 282.333 833.44 278.005C833.901 269.486 834.776 260.83 836.871 252.541V252.518Z" stroke="black" stroke-width="11.5116" stroke-linecap="round" stroke-linejoin="round"/>
<path d="M802.152 204.009C810.141 195.859 819.396 189.458 827.731 189.044C831.161 188.86 834.707 190.172 835.19 194.362C835.513 197.033 834.454 200.394 832.842 203.157C831.23 205.92 829.135 208.245 827.017 210.318C817.992 219.112 808.046 224.339 798.376 227.861C793.679 229.565 788.131 231.959 783.641 232.282C779.152 232.604 783.526 226.687 786.082 223.257C791.147 216.465 796.465 209.788 802.129 204.009H802.152Z" stroke="black" stroke-width="11.5116" stroke-linecap="round" stroke-linejoin="round"/>
<path d="M1389.11 42.2932L1414.11 64.0963C1414.89 64.7639 1416.07 64.7179 1416.76 63.9581L1434.25 45.3553C1435.36 44.1812 1434.62 42.2702 1433.03 42.1321L1424.06 41.3263C1422.67 41.2112 1421.87 39.6916 1422.56 38.4714L1430.89 23.8286C1431.86 22.1479 1430 20.26 1428.29 21.2039L1412.24 30.183C1411.07 30.8507 1409.6 30.1139 1409.41 28.7786L1408.12 19.7535C1407.89 18.0728 1405.73 17.5202 1404.72 18.8556L1388.81 39.6456C1388.19 40.4514 1388.3 41.5795 1389.06 42.2472L1389.11 42.2932Z" fill="black"/>
<path d="M1571.34 316.57C1580.24 316.57 1587.45 309.355 1587.45 300.454C1587.45 291.553 1580.24 284.338 1571.34 284.338C1562.43 284.338 1555.22 291.553 1555.22 300.454C1555.22 309.355 1562.43 316.57 1571.34 316.57Z" stroke="black" stroke-width="11.5116" stroke-linecap="round" stroke-linejoin="round"/>
<path d="M1610.04 100.865L1644.32 103.075L1628.73 44.9641L1678.6 62.715L1676.51 25.1641C1688 30.6436 1699.16 37.942 1709.04 46.3224C1734.87 68.2176 1741.82 106.92 1719.84 132.798C1705.1 150.134 1678.58 157.985 1656.43 151.838C1623.53 142.721 1610.02 100.865 1610.02 100.865H1610.04Z" stroke="black" stroke-width="11.5116" stroke-linecap="round" stroke-linejoin="round"/>
<path d="M1585.84 202.098L1606.1 206.219L1601.25 169.911L1629.61 184.646L1631.22 161.83C1637.65 166.066 1643.75 171.362 1649 177.233C1662.72 192.52 1663.92 216.441 1648.83 230.278C1638.73 239.534 1622.34 242.135 1609.6 236.633C1590.68 228.459 1585.82 202.121 1585.82 202.121L1585.84 202.098Z" stroke="black" stroke-width="11.5116" stroke-linecap="round" stroke-linejoin="round"/>
<path d="M1540.26 363.376C1569.24 370.099 1601.48 371.158 1628.97 358.173C1658.78 344.082 1679.02 315.234 1672.57 281.689C1669.12 263.685 1660.37 246.947 1650.59 231.637" stroke="black" stroke-width="11.5116" stroke-linecap="round" stroke-linejoin="round"/>
<path d="M1564.36 366.737C1612.52 372.562 1665.11 367.152 1706.53 340.076C1746.43 313.991 1771.41 265.965 1758.91 218.306C1751.19 188.975 1733.37 163.419 1715.09 139.705" stroke="black" stroke-width="11.5116" stroke-linecap="round" stroke-linejoin="round"/>
<path d="M962.462 54.6103L992.162 106.873L932.969 117.372L990.918 133.327L956.499 182.62L1008.76 152.92L1019.26 212.089L1035.22 154.163L1084.48 188.583L1054.81 136.32L1113.98 125.821L1056.03 109.866L1090.45 60.5963L1038.18 90.2733L1027.71 31.1035L1011.73 89.053L962.462 54.6103Z" stroke="black" stroke-width="11.5116" stroke-linecap="round" stroke-linejoin="round"/>
<path d="M1288.89 105.515C1288.89 105.515 1317.28 64.004 1355.38 59.6526C1373.48 57.6036 1388.33 64.2343 1400.3 80.2585C1407.48 89.8822 1412.82 100.795 1420.79 109.82C1428.87 118.984 1438.06 126.788 1447.96 133.028C1478.92 152.575 1509.66 150.226 1543.32 144.424C1547.17 165.214 1524.26 199.151 1512.93 213.356C1475.72 259.955 1422.95 269.464 1373.87 247.568C1358.88 240.892 1344.72 230.531 1335.17 215.451C1328.56 205.021 1324.35 192.128 1324.05 178.982C1323.72 164.385 1329.94 151.009 1329.64 136.32C1329.07 109.015 1308.18 102.2 1288.89 105.492V105.515Z" stroke="black" stroke-width="11.5116" stroke-linecap="round" stroke-linejoin="round"/>
<path d="M1353.33 238.406C1334.86 241.998 1306.94 276.809 1306.94 276.809" stroke="black" stroke-width="11.5116" stroke-linecap="round" stroke-linejoin="round"/>
<path d="M1406.58 377.582C1406.58 377.582 1432.09 348.941 1404.77 321.382L1445.47 294.076L1475.54 337.567L1460.16 348.043C1460.16 348.043 1446.32 333.423 1447.43 338.488C1448.56 343.553 1457.33 375.21 1406.56 377.582H1406.58Z" stroke="black" stroke-width="11.5116" stroke-linecap="round" stroke-linejoin="round"/>
<path d="M1238.26 250.217C1238.26 250.217 1262.36 280.032 1294 257.538L1314.35 302.134L1266.55 324.766L1258.7 307.913C1258.7 307.913 1275.37 296.632 1270.21 296.908C1265.06 297.184 1232.39 300.707 1238.26 250.24V250.217Z" stroke="black" stroke-width="11.5116" stroke-linecap="round" stroke-linejoin="round"/>
<path d="M1414.48 260.646C1408.1 264.676 1400.83 270.5 1399.03 278.213C1395.9 291.59 1411.3 300.592 1421.22 305.45" stroke="black" stroke-width="11.5116" stroke-linecap="round" stroke-linejoin="round"/>
<path d="M1361.37 110.65C1367.15 110.65 1371.84 105.96 1371.84 100.175C1371.84 94.3893 1367.15 89.6992 1361.37 89.6992C1355.58 89.6992 1350.89 94.3893 1350.89 100.175C1350.89 105.96 1355.58 110.65 1361.37 110.65Z" fill="black"/>
<path d="M1242.33 101.832L1147.94 103.536" stroke="black" stroke-width="11.5116" stroke-linecap="round" stroke-linejoin="round"/>
<path d="M1249.13 134.342L1166.87 173.389" stroke="black" stroke-width="11.5116" stroke-linecap="round" stroke-linejoin="round"/>
<path d="M1247.86 71.4635L1163.57 36.9746" stroke="black" stroke-width="11.5116" stroke-linecap="round" stroke-linejoin="round"/>
<path d="M730.711 78.7632C739.621 66.5609 752.123 57.5588 765.43 50.6978C778.737 43.8369 795.015 35.6867 809.473 35.1802C810.97 35.1341 812.559 35.1802 813.825 36.009C815.713 37.2062 816.38 39.7618 815.966 41.972C813.618 54.4737 800.771 67.5509 792.989 77.0595C783.549 88.6172 773.695 100.152 767.548 113.874C766.443 116.337 765.43 119.054 765.936 121.725C766.88 126.652 772.867 129.23 777.77 128.217C782.674 127.204 786.611 123.612 790.065 119.998C806.48 102.822 818.245 81.4799 836.388 65.9162C843.916 59.4467 870.854 38.956 875.274 58.5948C877.346 67.8041 872.442 79.9604 870.807 89.0316C868.528 101.625 866.963 114.472 868.022 127.273C869.656 146.912 879.74 160.266 893.324 173.711" stroke="black" stroke-width="11.5116" stroke-linecap="round" stroke-linejoin="round"/>
<path d="M569.638 38.979C564.757 49.6848 555.893 58.0192 546.5 65.0874C520.23 84.8874 484.751 100.083 451.345 98.7013C438.59 98.1718 425.628 94.2808 416.027 85.8543C406.426 77.4278 400.809 63.9822 403.571 51.5267C405.713 41.926 412.527 33.7527 420.885 28.5725C430.048 22.9088 441.974 18.8797 452.818 19.156C469.28 19.5704 474.552 34.8348 474.092 49.2013C473.562 66.3767 468.727 84.8643 461.268 100.336C448.766 126.237 424.615 144.518 413.425 171.34C409.719 180.25 407.301 190.403 407.531 200.073C407.716 207.578 409.903 215.245 414.853 220.886C422.658 229.75 435.459 231.96 447.223 232.835C458.988 233.71 471.513 234.009 481.39 240.525C489.586 245.912 494.813 255.098 496.747 264.722C498.68 274.346 497.598 284.361 495.135 293.846C493.155 301.421 490.323 308.789 488.734 316.455C487.146 324.122 486.893 332.364 490.001 339.548C497.737 357.506 520.967 362.318 538.303 364.113C564.067 366.784 590.037 367.613 615.915 366.577" stroke="black" stroke-width="11.5116" stroke-linecap="round" stroke-linejoin="round"/>
<path d="M452.411 282.035L433.992 374.128" stroke="black" stroke-width="11.5116" stroke-linecap="round" stroke-linejoin="round"/>
<path d="M419.304 276.809L346.734 362.133" stroke="black" stroke-width="11.5116" stroke-linecap="round" stroke-linejoin="round"/>
<path d="M1039.04 317.859C1044.82 317.859 1049.51 313.169 1049.51 307.384C1049.51 301.598 1044.82 296.908 1039.04 296.908C1033.25 296.908 1028.56 301.598 1028.56 307.384C1028.56 313.169 1033.25 317.859 1039.04 317.859Z" fill="black"/>
<path d="M1073.58 274.115C1079.36 274.115 1084.05 269.425 1084.05 263.64C1084.05 257.854 1079.36 253.164 1073.58 253.164C1067.79 253.164 1063.1 257.854 1063.1 263.64C1063.1 269.425 1067.79 274.115 1073.58 274.115Z" fill="black"/>
<path d="M1775.78 145.186C1781.57 145.186 1786.26 140.495 1786.26 134.71C1786.26 128.924 1781.57 124.234 1775.78 124.234C1769.99 124.234 1765.3 128.924 1765.3 134.71C1765.3 140.495 1769.99 145.186 1775.78 145.186Z" fill="black"/>
<path d="M1257.76 209.65C1263.54 209.65 1268.23 204.96 1268.23 199.175C1268.23 193.389 1263.54 188.699 1257.76 188.699C1251.97 188.699 1247.28 193.389 1247.28 199.175C1247.28 204.96 1251.97 209.65 1257.76 209.65Z" fill="black"/>
<path d="M1319.92 366.207C1325.71 366.207 1330.4 361.517 1330.4 355.731C1330.4 349.946 1325.71 345.256 1319.92 345.256C1314.14 345.256 1309.45 349.946 1309.45 355.731C1309.45 361.517 1314.14 366.207 1319.92 366.207Z" fill="black"/>
<path d="M350.647 168.207C356.433 168.207 361.123 163.517 361.123 157.731C361.123 151.946 356.433 147.256 350.647 147.256C344.862 147.256 340.172 151.946 340.172 157.731C340.172 163.517 344.862 168.207 350.647 168.207Z" fill="black"/>
<path d="M553.249 310.951C559.035 310.951 563.725 306.261 563.725 300.476C563.725 294.69 559.035 290 553.249 290C547.464 290 542.773 294.69 542.773 300.476C542.773 306.261 547.464 310.951 553.249 310.951Z" fill="black"/>
<path d="M85.874 366.207C91.6595 366.207 96.3496 361.517 96.3496 355.731C96.3496 349.946 91.6595 345.256 85.874 345.256C80.0885 345.256 75.3984 349.946 75.3984 355.731C75.3984 361.517 80.0885 366.207 85.874 366.207Z" fill="black"/>
<path d="M121.562 366.207C127.347 366.207 132.037 361.517 132.037 355.731C132.037 349.946 127.347 345.256 121.562 345.256C115.776 345.256 111.086 349.946 111.086 355.731C111.086 361.517 115.776 366.207 121.562 366.207Z" fill="black"/>
<path d="M157.249 366.207C163.035 366.207 167.725 361.517 167.725 355.731C167.725 349.946 163.035 345.256 157.249 345.256C151.464 345.256 146.773 349.946 146.773 355.731C146.773 361.517 151.464 366.207 157.249 366.207Z" fill="black"/>
<path d="M1052.32 337.751C1052.32 337.751 1114.48 328.404 1112.43 264.008" stroke="black" stroke-width="11.5116" stroke-linecap="round" stroke-linejoin="round"/>
</svg>
