<?xml version="1.0" encoding="utf-8"?>
<!-- Generator: Adobe Illustrator 21.0.0, SVG Export Plug-In . SVG Version: 6.00 Build 0)  -->
<svg version="1.1" id="Layer_1" xmlns="http://www.w3.org/2000/svg" xmlns:xlink="http://www.w3.org/1999/xlink" x="0px" y="0px"
	 viewBox="0 0 64 64" style="enable-background:new 0 0 64 64;" xml:space="preserve">
    <defs>
      <linearGradient id="logo-gradient" x1="50%" y1="0%" x2="50%" y2="100%">
        <!--Use two colors and alternate them as shown below-->
        <stop offset="0%" stop-color="color-1">
          <animate attributeName="stop-color" values="#5200ff; #17404e; #5200ff" dur="4s" repeatCount="indefinite"></animate>
        </stop>
        <stop offset="50%" stop-color="color-2">
          <animate attributeName="stop-color" values="#17404e; #5200ff; #17404e" dur="6s" repeatCount="indefinite"></animate>
        </stop>
        <stop offset="100%" stop-color="color-3">
          <animate attributeName="stop-color" values="#5200ff; #17404e; #5200ff" dur="4s" repeatCount="indefinite"></animate>
        </stop>

      </linearGradient>
    </defs>
    <g fill="url('#logo-gradient')"> 
	<path class="st0" d="M329.48,311.92c0,0-16.77-93.24-71.78-97.94C257.7,213.99,242.28,273.02,329.48,311.92z"/>
<path class="st0" d="M365.11,305.94c0,0,52.48-123.89-2.38-171.71C362.74,134.24,302.64,196.67,365.11,305.94z"/>
<circle class="st0" cx="485.48" cy="339.17" r="91.74"/>
<path class="st0" d="M308.93,347.81c0,0-16.92,106.7,68.96,148.34s179.57,3.9,205.59-46.84c0,0-50.1,22.12-109.3,11.71
	c-21.99-3.87-42.53-10.37-60.79-23.45c-10.22-7.32-19.48-15.96-27.49-25.64c-7.68-9.28-13.43-19.81-20.88-29.25
	C351.13,365.07,332.58,348.45,308.93,347.81z"/>
<path class="st0" d="M138.7,284.05c0,0,75.35-4.91,118.18,23.27c15.52,10.21,24.14,28.26,22.39,46.75
	c-1.53,16.09-1.12,32.42,1.38,48.4c3.36,21.48,10.7,42.37,22.53,60.67c14.93,23.1,36.51,40.92,61.03,53.1
	c19.29,9.59,39.94,16.39,61.21,19.85c-19.48,8.41-43.06,11.65-64.13,11.42c-43.52-0.46-89.03-16.22-120.82-46.52
	c-2.88-2.75-5.66-5.61-8.32-8.58c-14.22-15.9-25.02-34.82-31.59-55.11c-3.44-10.62-5.43-21.12-5.9-32.25
	c-0.54-12.63,0.52-25.3-0.66-37.91c-0.02-0.25-0.05-0.51-0.07-0.76C190.31,330.36,167.25,304.5,138.7,284.05z"/>
</g>
</svg>
