<?xml version="1.0" encoding="utf-8"?>
<!-- Generator: Adobe Illustrator 27.5.0, SVG Export Plug-In . SVG Version: 6.00 Build 0)  -->
<svg version="1.1" id="svg-logo" xmlns="http://www.w3.org/2000/svg" xmlns:xlink="http://www.w3.org/1999/xlink" x="0px" y="0px"
	 viewBox="0 0 444.8 413.3" style="enable-background:new 0 0 444.8 413.3;" xml:space="preserve">

<path class="st0" d="M190.8,177.7c0,0-16.8-93.2-71.8-97.9C119,79.8,103.6,138.8,190.8,177.7z"/>
<path class="st0" d="M226.4,171.7c0,0,52.5-123.9-2.4-171.7C224,0,163.9,62.4,226.4,171.7z"/>
<circle class="st0" cx="346.8" cy="204.9" r="91.7"/>
<path class="st0" d="M170.2,213.6c0,0-16.9,106.7,69,148.3c85.9,41.6,179.6,3.9,205.6-46.8c0,0-50.1,22.1-109.3,11.7
	c-22-3.9-42.5-10.4-60.8-23.5c-10.2-7.3-19.5-16-27.5-25.6c-7.7-9.3-13.4-19.8-20.9-29.3C212.4,230.8,193.9,214.2,170.2,213.6z"/>
<path class="st0" d="M0,149.8c0,0,75.3-4.9,118.2,23.3c15.5,10.2,24.1,28.3,22.4,46.8c-1.5,16.1-1.1,32.4,1.4,48.4
	c3.4,21.5,10.7,42.4,22.5,60.7c14.9,23.1,36.5,40.9,61,53.1c19.3,9.6,39.9,16.4,61.2,19.8c-19.5,8.4-43.1,11.7-64.1,11.4
	c-43.5-0.5-89-16.2-120.8-46.5c-2.9-2.8-5.7-5.6-8.3-8.6c-14.2-15.9-25-34.8-31.6-55.1c-3.4-10.6-5.4-21.1-5.9-32.2
	c-0.5-12.6,0.5-25.3-0.7-37.9c0-0.2-0.1-0.5-0.1-0.8C51.6,196.1,28.6,170.3,0,149.8z"/>
</svg>
