<svg id="e1XmWO0ax7w1" xmlns="http://www.w3.org/2000/svg" xmlns:xlink="http://www.w3.org/1999/xlink" viewBox="0 0 302 415" shape-rendering="geometricPrecision" text-rendering="geometricPrecision" project-id="2a4d2d6fe9384ef399e8cfdc51e42fcf" export-id="a4655ca30b074c00ac43f2ad7ce96c1e" cached="false">
<style><![CDATA[
#e1XmWO0ax7w2_to {animation: e1XmWO0ax7w2_to__to 3300ms linear 1 normal forwards}@keyframes e1XmWO0ax7w2_to__to { 0% {transform: translate(23.5px,338.5px)} 48.484848% {transform: translate(25.5px,337.5px)} 93.939394% {transform: translate(23.5px,338.5px)} 100% {transform: translate(23.5px,338.5px)}} #e1XmWO0ax7w3_to {animation: e1XmWO0ax7w3_to__to 3300ms linear 1 normal forwards}@keyframes e1XmWO0ax7w3_to__to { 0% {transform: translate(23.5px,379.5px)} 36.363636% {transform: translate(25.5px,381.5px)} 81.818182% {transform: translate(23.5px,379.5px)} 100% {transform: translate(23.5px,379.5px)}} #e1XmWO0ax7w4_ts {animation: e1XmWO0ax7w4_ts__ts 3300ms linear 1 normal forwards}@keyframes e1XmWO0ax7w4_ts__ts { 0% {transform: translate(178.004997px,264.004997px) scale(1,1)} 3.030303% {transform: translate(178.004997px,264.004997px) scale(1,1)} 63.636364% {transform: translate(178.004997px,264.004997px) scale(1.131231,1.131231)} 93.939394% {transform: translate(178.004997px,264.004997px) scale(1,1)} 100% {transform: translate(178.004997px,264.004997px) scale(1,1)}} #e1XmWO0ax7w6_to {animation: e1XmWO0ax7w6_to__to 3300ms linear 1 normal forwards}@keyframes e1XmWO0ax7w6_to__to { 0% {transform: translate(196.5px,365.5px)} 9.090909% {transform: translate(196.5px,365.5px)} 45.454545% {transform: translate(198.5px,366.5px)} 87.878788% {transform: translate(196.5px,365.5px)} 100% {transform: translate(196.5px,365.5px)}} #e1XmWO0ax7w7_tr {animation: e1XmWO0ax7w7_tr__tr 3300ms linear 1 normal forwards}@keyframes e1XmWO0ax7w7_tr__tr { 0% {transform: translate(231.188797px,320.568192px) rotate(0deg)} 45.454545% {transform: translate(231.188797px,320.568192px) rotate(3.692473deg)} 87.878788% {transform: translate(231.188797px,320.568192px) rotate(0deg)} 100% {transform: translate(231.188797px,320.568192px) rotate(0deg)}} #e1XmWO0ax7w13_to {animation: e1XmWO0ax7w13_to__to 3300ms linear 1 normal forwards}@keyframes e1XmWO0ax7w13_to__to { 0% {transform: translate(76.667187px,357.304993px)} 3.030303% {transform: translate(76.667187px,357.304993px)} 48.484848% {transform: translate(76.667187px,354.304993px)} 93.939394% {transform: translate(76.667187px,357.304993px)} 100% {transform: translate(76.667187px,357.304993px)}} #e1XmWO0ax7w13_tr {animation: e1XmWO0ax7w13_tr__tr 3300ms linear 1 normal forwards}@keyframes e1XmWO0ax7w13_tr__tr { 0% {transform: rotate(0deg)} 3.030303% {transform: rotate(0deg)} 48.484848% {transform: rotate(10.038333deg)} 93.939394% {transform: rotate(0deg)} 100% {transform: rotate(0deg)}} #e1XmWO0ax7w16_to {animation: e1XmWO0ax7w16_to__to 3300ms linear 1 normal forwards}@keyframes e1XmWO0ax7w16_to__to { 0% {transform: translate(138.185406px,373.604996px)} 3.030303% {transform: translate(138.185406px,373.604996px)} 48.484848% {transform: translate(138.185406px,371.604996px)} 93.939394% {transform: translate(138.185406px,373.604996px)} 100% {transform: translate(138.185406px,373.604996px)}} #e1XmWO0ax7w16_tr {animation: e1XmWO0ax7w16_tr__tr 3300ms linear 1 normal forwards}@keyframes e1XmWO0ax7w16_tr__tr { 0% {transform: rotate(0deg)} 3.030303% {transform: rotate(0deg)} 48.484848% {transform: rotate(-7.544581deg)} 93.939394% {transform: rotate(0deg)} 100% {transform: rotate(0deg)}} #e1XmWO0ax7w19_ts {animation: e1XmWO0ax7w19_ts__ts 3300ms linear 1 normal forwards}@keyframes e1XmWO0ax7w19_ts__ts { 0% {transform: translate(105.299999px,278.510025px) scale(1,1)} 60.606061% {transform: translate(105.299999px,278.510025px) scale(1,1)} 66.666667% {transform: translate(105.299999px,278.510025px) scale(1,-0.010108)} 72.727273% {transform: translate(105.299999px,278.510025px) scale(1,1)} 100% {transform: translate(105.299999px,278.510025px) scale(1,1)}} #e1XmWO0ax7w20_to {animation: e1XmWO0ax7w20_to__to 3300ms linear 1 normal forwards}@keyframes e1XmWO0ax7w20_to__to { 0% {transform: translate(33.1px,279.600006px)} 75.757576% {transform: translate(33.1px,279.600006px)} 84.848485% {transform: translate(30.25px,279.600006px)} 93.939394% {transform: translate(33.1px,279.600006px)} 100% {transform: translate(33.1px,279.600006px)}} #e1XmWO0ax7w21_to {animation: e1XmWO0ax7w21_to__to 3300ms linear 1 normal forwards}@keyframes e1XmWO0ax7w21_to__to { 0% {transform: translate(38.684999px,301.830002px)} 75.757576% {transform: translate(38.684999px,301.830002px)} 84.848485% {transform: translate(36.333332px,303.550071px)} 93.939394% {transform: translate(38.684999px,301.830002px)} 100% {transform: translate(38.684999px,301.830002px)}} #e1XmWO0ax7w22_to {animation: e1XmWO0ax7w22_to__to 3300ms linear 1 normal forwards}@keyframes e1XmWO0ax7w22_to__to { 0% {transform: translate(37.695px,258.550003px)} 75.757576% {transform: translate(37.695px,258.550003px)} 84.848485% {transform: translate(35.064912px,256.515003px)} 93.939394% {transform: translate(37.695px,258.550003px)} 100% {transform: translate(37.695px,258.550003px)}} #e1XmWO0ax7w26_to {animation: e1XmWO0ax7w26_to__to 3300ms linear 1 normal forwards}@keyframes e1XmWO0ax7w26_to__to { 0% {transform: translate(77.779999px,170.860001px)} 48.484848% {transform: translate(78.779999px,169.860001px)} 96.969697% {transform: translate(77.779999px,170.860001px)} 100% {transform: translate(77.779999px,170.860001px)}} #e1XmWO0ax7w27_ts {animation: e1XmWO0ax7w27_ts__ts 3300ms linear 1 normal forwards}@keyframes e1XmWO0ax7w27_ts__ts { 0% {transform: translate(76.803176px,158.899132px) scale(1,1)} 45.454545% {transform: translate(76.803176px,158.899132px) scale(1,1.044403)} 93.939394% {transform: translate(76.803176px,158.899132px) scale(1,1)} 100% {transform: translate(76.803176px,158.899132px) scale(1,1)}} #e1XmWO0ax7w28_to {animation: e1XmWO0ax7w28_to__to 3300ms linear 1 normal forwards}@keyframes e1XmWO0ax7w28_to__to { 0% {transform: translate(31.669998px,34.26px)} 42.424242% {transform: translate(34.669998px,31.26px)} 90.909091% {transform: translate(31.669998px,34.26px)} 100% {transform: translate(31.669998px,34.26px)}} #e1XmWO0ax7w29_to {animation: e1XmWO0ax7w29_to__to 3300ms linear 1 normal forwards}@keyframes e1XmWO0ax7w29_to__to { 0% {transform: translate(147.759995px,226.619995px)} 39.393939% {transform: translate(146.759995px,224.619995px)} 93.939394% {transform: translate(147.759995px,226.619995px)} 100% {transform: translate(147.759995px,226.619995px)}} #e1XmWO0ax7w30_to {animation: e1XmWO0ax7w30_to__to 3300ms linear 1 normal forwards}@keyframes e1XmWO0ax7w30_to__to { 0% {transform: translate(281.76001px,230.619995px)} 39.393939% {transform: translate(283.76001px,232.619995px)} 84.848485% {transform: translate(281.76001px,230.619995px)} 100% {transform: translate(281.76001px,230.619995px)}} #e1XmWO0ax7w32_to {animation: e1XmWO0ax7w32_to__to 3300ms linear 1 normal forwards}@keyframes e1XmWO0ax7w32_to__to { 0% {transform: translate(261.805px,193.419998px)} 12.121212% {transform: translate(261.805px,193.419998px)} 18.181818% {transform: translate(265.785px,194.839998px)} 24.242424% {transform: translate(261.805px,193.419998px)} 100% {transform: translate(261.805px,193.419998px)}} #e1XmWO0ax7w33_to {animation: e1XmWO0ax7w33_to__to 3300ms linear 1 normal forwards}@keyframes e1XmWO0ax7w33_to__to { 0% {transform: translate(174.425003px,193.514999px)} 60.606061% {transform: translate(174.425003px,193.514999px)} 66.666667% {transform: translate(171.105066px,194.839999px)} 72.727273% {transform: translate(174.425003px,193.514999px)} 100% {transform: translate(174.425003px,193.514999px)}} #e1XmWO0ax7w34_to {animation: e1XmWO0ax7w34_to__to 3300ms linear 1 normal forwards}@keyframes e1XmWO0ax7w34_to__to { 0% {transform: translate(243.375px,215.399971px)} 24.242424% {transform: translate(243.375px,215.399971px)} 30.30303% {transform: translate(245.75px,218.379971px)} 36.363636% {transform: translate(243.375px,215.399971px)} 100% {transform: translate(243.375px,215.399971px)}} #e1XmWO0ax7w35_to {animation: e1XmWO0ax7w35_to__to 3300ms linear 1 normal forwards}@keyframes e1XmWO0ax7w35_to__to { 0% {transform: translate(194.355003px,213.880051px)} 48.484848% {transform: translate(194.355003px,213.880051px)} 54.545455% {transform: translate(192.268201px,216.250051px)} 60.606061% {transform: translate(194.355003px,213.880051px)} 100% {transform: translate(194.355003px,213.880051px)}} #e1XmWO0ax7w36_to {animation: e1XmWO0ax7w36_to__to 3300ms linear 1 normal forwards}@keyframes e1XmWO0ax7w36_to__to { 0% {transform: translate(218.354996px,223.305px)} 36.363636% {transform: translate(218.354996px,223.305px)} 42.424242% {transform: translate(218.354996px,226.28px)} 48.484848% {transform: translate(218.354996px,223.305px)} 100% {transform: translate(218.354996px,223.305px)}} #e1XmWO0ax7w37_to {animation: e1XmWO0ax7w37_to__to 3300ms linear 1 normal forwards}@keyframes e1XmWO0ax7w37_to__to { 0% {transform: translate(24.3px,226.509995px)} 12.121212% {transform: translate(24.3px,226.509995px)} 24.242424% {transform: translate(24.3px,223.509995px)} 36.363636% {transform: translate(24.3px,226.509995px)} 100% {transform: translate(24.3px,226.509995px)}} #e1XmWO0ax7w38_to {animation: e1XmWO0ax7w38_to__to 3300ms linear 1 normal forwards}@keyframes e1XmWO0ax7w38_to__to { 0% {transform: translate(39.799999px,226.509995px)} 36.363636% {transform: translate(39.799999px,226.509995px)} 48.484848% {transform: translate(39.799999px,222.509995px)} 60.606061% {transform: translate(39.799999px,226.509995px)} 100% {transform: translate(39.799999px,226.509995px)}} #e1XmWO0ax7w39_to {animation: e1XmWO0ax7w39_to__to 3300ms linear 1 normal forwards}@keyframes e1XmWO0ax7w39_to__to { 0% {transform: translate(55.299999px,226.509995px)} 60.606061% {transform: translate(55.299999px,226.509995px)} 72.727273% {transform: translate(55.299999px,222.509995px)} 87.878788% {transform: translate(55.299999px,226.509995px)} 100% {transform: translate(55.299999px,226.509995px)}} #e1XmWO0ax7w40_tr {animation: e1XmWO0ax7w40_tr__tr 3300ms linear 1 normal forwards}@keyframes e1XmWO0ax7w40_tr__tr { 0% {transform: translate(80.609032px,81.133944px) rotate(0deg)} 45.454545% {transform: translate(80.609032px,81.133944px) rotate(-4.622325deg)} 93.939394% {transform: translate(80.609032px,81.133944px) rotate(0deg)} 100% {transform: translate(80.609032px,81.133944px) rotate(0deg)}} #e1XmWO0ax7w49_tr {animation: e1XmWO0ax7w49_tr__tr 3300ms linear 1 normal forwards}@keyframes e1XmWO0ax7w49_tr__tr { 0% {transform: translate(176.406204px,119.672699px) rotate(0deg)} 45.454545% {transform: translate(176.406204px,119.672699px) rotate(2.467275deg)} 93.939394% {transform: translate(176.406204px,119.672699px) rotate(0deg)} 100% {transform: translate(176.406204px,119.672699px) rotate(0deg)}} #e1XmWO0ax7w58_ts {animation: e1XmWO0ax7w58_ts__ts 3300ms linear 1 normal forwards}@keyframes e1XmWO0ax7w58_ts__ts { 0% {transform: translate(243.540001px,61.815001px) scale(1,1)} 48.484848% {transform: translate(243.540001px,61.815001px) scale(1.045027,1.045027)} 96.969697% {transform: translate(243.540001px,61.815001px) scale(1,1)} 100% {transform: translate(243.540001px,61.815001px) scale(1,1)}} #e1XmWO0ax7w59_ts {animation: e1XmWO0ax7w59_ts__ts 3300ms linear 1 normal forwards}@keyframes e1XmWO0ax7w59_ts__ts { 0% {transform: translate(151.694988px,54.362352px) scale(1,1)} 45.454545% {transform: translate(151.694988px,54.362352px) scale(1.04903,0.953485)} 96.969697% {transform: translate(151.694988px,54.362352px) scale(1,1)} 100% {transform: translate(151.694988px,54.362352px) scale(1,1)}} #e1XmWO0ax7w61_ts {animation: e1XmWO0ax7w61_ts__ts 3300ms linear 1 normal forwards}@keyframes e1XmWO0ax7w61_ts__ts { 0% {transform: translate(265.300003px,123.509998px) rotate(-48.315129deg) scale(1,1)} 15.151515% {transform: translate(265.300003px,123.509998px) rotate(-48.315129deg) scale(1,1)} 21.212121% {transform: translate(265.300003px,123.509998px) rotate(-48.315129deg) scale(0.999994,-0.05286)} 27.272727% {transform: translate(265.300003px,123.509998px) rotate(-48.315129deg) scale(1,1)} 100% {transform: translate(265.300003px,123.509998px) rotate(-48.315129deg) scale(1,1)}}
]]></style>
<g id="e1XmWO0ax7w2_to" transform="translate(23.5,338.5)"><circle r="8" transform="translate(0,0)" fill="none" stroke="#000" stroke-width="5" stroke-linecap="round" stroke-linejoin="round"/></g><g id="e1XmWO0ax7w3_to" transform="translate(23.5,379.5)"><circle r="11" transform="translate(0,0)" fill="none" stroke="#000" stroke-width="5" stroke-linecap="round" stroke-linejoin="round"/></g><g id="e1XmWO0ax7w4_ts" transform="translate(178.004997,264.004997) scale(1,1)"><polygon points="178.01,248.01 182.33,259.69 194,264.01 182.33,268.33 178.01,280 173.69,268.33 162.01,264.01 173.69,259.69 178.01,248.01" transform="translate(-178.004997,-264.004997)" fill="none" stroke="#000" stroke-width="5" stroke-linecap="round" stroke-linejoin="round"/></g><path d="M117.35,253.37l10.86,9.47c.34.29.85.27,1.15-.06l7.6-8.08c.48-.51.16-1.34-.53-1.4l-3.9-.35c-.6-.05-.95-.71-.65-1.24l3.62-6.36c.42-.73-.39-1.55-1.13-1.14l-6.97,3.9c-.51.29-1.15-.03-1.23-.61l-.56-3.92c-.1-.73-1.04-.97-1.48-.39l-6.91,9.03c-.27.35-.22.84.11,1.13l.02.02Z" stroke-width="0"/><g id="e1XmWO0ax7w6_to" transform="translate(196.5,365.5)"><circle r="7" transform="translate(0,0)" fill="none" stroke="#000" stroke-width="5" stroke-linecap="round" stroke-linejoin="round"/></g><g id="e1XmWO0ax7w7_tr" transform="translate(231.188797,320.568192) rotate(0)"><g transform="translate(-231.188797,-320.568191)"><path d="M213.31,278.81l14.89.96-6.77-25.24l21.66,7.71-.91-16.31c4.99,2.38,9.84,5.55,14.13,9.19c11.22,9.51,14.24,26.32,4.69,37.56-6.4,7.53-17.92,10.94-27.54,8.27-14.29-3.96-20.16-22.14-20.16-22.14h.01Z" fill="none" stroke="#000" stroke-width="5" stroke-linecap="round" stroke-linejoin="round"/><path d="M202.8,322.78l8.8,1.79-2.11-15.77l12.32,6.4.7-9.91c2.79,1.84,5.44,4.14,7.72,6.69c5.96,6.64,6.48,17.03-.07,23.04-4.39,4.02-11.51,5.15-17.04,2.76-8.22-3.55-10.33-14.99-10.33-14.99l.01-.01Z" fill="none" stroke="#000" stroke-width="5" stroke-linecap="round" stroke-linejoin="round"/><path d="M183,392.83c12.59,2.92,26.59,3.38,38.53-2.26c12.95-6.12,21.74-18.65,18.94-33.22-1.5-7.82-5.3-15.09-9.55-21.74" fill="none" stroke="#000" stroke-width="5" stroke-linecap="round" stroke-linejoin="round"/><path d="M193.47,394.29c20.92,2.53,43.76.18,61.75-11.58c17.33-11.33,28.18-32.19,22.75-52.89-3.35-12.74-11.09-23.84-19.03-34.14" fill="none" stroke="#000" stroke-width="5" stroke-linecap="round" stroke-linejoin="round"/></g></g><path d="M73.82,280.83c0,0,12.33-18.03,28.88-19.92c7.86-.89,14.31,1.99,19.51,8.95c3.12,4.18,5.44,8.92,8.9,12.84c3.51,3.98,7.5,7.37,11.8,10.08c13.45,8.49,26.8,7.47,41.42,4.95c1.67,9.03-8.28,23.77-13.2,29.94-16.16,20.24-39.08,24.37-60.4,14.86-6.51-2.9-12.66-7.4-16.81-13.95-2.87-4.53-4.7-10.13-4.83-15.84-.14-6.34,2.56-12.15,2.43-18.53-.25-11.86-9.32-14.82-17.7-13.39v.01Z" fill="none" stroke="#000" stroke-width="5" stroke-linecap="round" stroke-linejoin="round"/><g id="e1XmWO0ax7w13_to" transform="translate(76.667187,357.304993)"><g id="e1XmWO0ax7w13_tr" transform="rotate(0)"><g transform="translate(-76.667187,-357.304993)"><path d="M101.81,338.55v0c-8.02,1.56-20.15,16.68-20.15,16.68" fill="none" stroke="#000" stroke-width="5" stroke-linecap="round" stroke-linejoin="round"/><path d="M51.83,343.68c0,0,10.47,12.95,24.21,3.18l8.84,19.37-20.76,9.83-3.41-7.32c0,0,7.24-4.9,5-4.78-2.25.12-16.43,1.65-13.88-20.27v-.01Z" fill="none" stroke="#000" stroke-width="5" stroke-linecap="round" stroke-linejoin="round"/></g></g></g><g id="e1XmWO0ax7w16_to" transform="translate(138.185406,373.604996)"><g id="e1XmWO0ax7w16_tr" transform="rotate(0)"><g transform="translate(-138.185405,-373.604995)"><path d="M124.94,399c0,0,11.08-12.44-.79-24.41l17.68-11.86l13.06,18.89-6.68,4.55c0,0-6.01-6.35-5.53-4.15.49,2.2,4.3,15.95-17.75,16.98h.01Z" fill="none" stroke="#000" stroke-width="5" stroke-linecap="round" stroke-linejoin="round"/><path d="M128.37,348.21c-2.77,1.75-5.93,4.28-6.71,7.63-1.36,5.81,5.33,9.72,9.64,11.83" fill="none" stroke="#000" stroke-width="5" stroke-linecap="round" stroke-linejoin="round"/></g></g></g><g id="e1XmWO0ax7w19_ts" transform="translate(105.299999,278.510025) scale(1,1)"><circle r="4.55" transform="translate(0.000001,-0.000025)" stroke-width="0"/></g><g id="e1XmWO0ax7w20_to" transform="translate(33.1,279.600006)"><line x1="53.6" y1="279.23" x2="12.6" y2="279.97" transform="translate(-33.1,-279.600006)" fill="none" stroke="#000" stroke-width="5" stroke-linecap="round" stroke-linejoin="round"/></g><g id="e1XmWO0ax7w21_to" transform="translate(38.684999,301.830002)"><line x1="56.55" y1="293.35" x2="20.82" y2="310.31" transform="translate(-38.684999,-301.830002)" fill="none" stroke="#000" stroke-width="5" stroke-linecap="round" stroke-linejoin="round"/></g><g id="e1XmWO0ax7w22_to" transform="translate(37.695,258.550003)"><line x1="56" y1="266.04" x2="19.39" y2="251.06" transform="translate(-37.695,-258.550003)" fill="none" stroke="#000" stroke-width="5" stroke-linecap="round" stroke-linejoin="round"/></g><circle r="4.55" transform="translate(285.3 293.51)" stroke-width="0"/><circle r="4.55" transform="translate(60.3 321.51)" stroke-width="0"/><circle r="4.55" transform="translate(87.3 389.51)" stroke-width="0"/><g id="e1XmWO0ax7w26_to" transform="translate(77.779999,170.860001)"><circle r="9.89" transform="translate(0.000001,-0.000001)" fill="none" stroke="#000" stroke-width="5" stroke-linecap="round" stroke-linejoin="round"/></g><g id="e1XmWO0ax7w27_ts" transform="translate(76.803176,158.899132) scale(1,1)"><path d="M140.36,181.53c-4.99-1.07-10.2-.14-15.1,1.29-13.71,4.02-28.2,12.44-36.39,24.44-3.13,4.58-5.13,10.11-4.68,15.64s3.67,10.97,8.74,13.24c3.9,1.75,8.51,1.49,12.49-.08c4.35-1.72,8.85-4.84,11.56-8.68c4.13-5.85.17-11.63-4.96-15.21-6.12-4.26-13.82-7.38-21.14-8.79-12.27-2.37-24.9,1.32-37.14-1.74-4.06-1.02-8.23-2.81-11.54-5.39-2.57-2.01-4.67-4.76-5.35-7.95-1.07-5.02,1.48-10.05,4.23-14.38s5.89-8.77,6.18-13.9c.24-4.25-1.6-8.46-4.45-11.63-2.84-3.17-6.62-5.39-10.56-6.99-3.15-1.28-6.45-2.2-9.53-3.64s-6.02-3.48-7.72-6.43c-4.26-7.35.1-16.69,3.97-23.2c5.75-9.67,12.2-18.93,19.27-27.68" transform="translate(-76.803176,-158.899132)" fill="none" stroke="#000" stroke-width="5" stroke-linecap="round" stroke-linejoin="round"/></g><g id="e1XmWO0ax7w28_to" transform="translate(31.669998,34.26)"><circle r="9.89" transform="translate(0.000002,0)" fill="none" stroke="#000" stroke-width="5" stroke-linecap="round" stroke-linejoin="round"/></g><g id="e1XmWO0ax7w29_to" transform="translate(147.759995,226.619995)"><circle r="7" transform="translate(0.000005,0.000005)" fill="none" stroke="#000" stroke-width="5" stroke-linecap="round" stroke-linejoin="round"/></g><g id="e1XmWO0ax7w30_to" transform="translate(281.76001,230.619995)"><circle r="7" transform="translate(-0.00001,0.000005)" fill="none" stroke="#000" stroke-width="5" stroke-linecap="round" stroke-linejoin="round"/></g><circle r="9" transform="translate(218.27 185.84)" fill="none" stroke="#000" stroke-width="5" stroke-linecap="round" stroke-linejoin="round"/><g id="e1XmWO0ax7w32_to" transform="translate(261.805,193.419998)"><line x1="241.77" y1="187.47" x2="281.84" y2="199.37" transform="translate(-261.805,-193.419998)" fill="none" stroke="#000" stroke-width="5" stroke-linecap="round" stroke-linejoin="round"/></g><g id="e1XmWO0ax7w33_to" transform="translate(174.425003,193.514999)"><line x1="154.11" y1="198.44" x2="194.74" y2="188.59" transform="translate(-174.425003,-193.514999)" fill="none" stroke="#000" stroke-width="5" stroke-linecap="round" stroke-linejoin="round"/></g><g id="e1XmWO0ax7w34_to" transform="translate(243.375,215.399971)"><path d="M234.92,204.52c.12-.04,16.91,21.76,16.91,21.76" transform="translate(-243.375,-215.399971)" fill="none" stroke="#000" stroke-width="5" stroke-linecap="round" stroke-linejoin="round"/></g><g id="e1XmWO0ax7w35_to" transform="translate(194.355003,213.880051)"><path d="M184.91,223.91c.12.05,18.89-20.06,18.89-20.06" transform="translate(-194.355003,-213.880051)" fill="none" stroke="#000" stroke-width="5" stroke-linecap="round" stroke-linejoin="round"/></g><g id="e1XmWO0ax7w36_to" transform="translate(218.354996,223.305)"><line x1="218.17" y1="210.19" x2="218.54" y2="236.42" transform="translate(-218.354996,-223.305)" fill="none" stroke="#000" stroke-width="5" stroke-linecap="round" stroke-linejoin="round"/></g><g id="e1XmWO0ax7w37_to" transform="translate(24.3,226.509995)"><circle r="4.55" transform="translate(0,0.000005)" stroke-width="0"/></g><g id="e1XmWO0ax7w38_to" transform="translate(39.799999,226.509995)"><circle r="4.55" transform="translate(0.000001,0.000005)" stroke-width="0"/></g><g id="e1XmWO0ax7w39_to" transform="translate(55.299999,226.509995)"><circle r="4.55" transform="translate(0.000001,0.000005)" stroke-width="0"/></g><g id="e1XmWO0ax7w40_tr" transform="translate(80.609032,81.133944) rotate(0)"><g transform="translate(-80.609032,-81.133943)"><path d="M101.08,17.06C79.21,45.1,50.64,92.63,89.25,121.11" fill="none" stroke="#000" stroke-width="5" stroke-linecap="round" stroke-linejoin="round"/><path d="M104.66,126.74c4.61,2.48,8.78,6.24,10.49,11.18.7,2.04.86,4.57-.67,6.1-.97.97-2.45,1.31-3.82,1.15s-2.64-.77-3.83-1.46c-5.05-2.93-8.9-7.44-12.04-12.28-1.52-2.35-3.47-5.02-4.43-7.67-1-2.77,2.13-1.71,3.93-1.15c3.54,1.1,7.1,2.37,10.37,4.13Z" fill="none" stroke="#000" stroke-width="5" stroke-linecap="round" stroke-linejoin="round"/><path d="M78.75,123.85c.01,5.23-1.31,10.69-4.84,14.54-1.46,1.59-3.61,2.93-5.68,2.31-1.32-.39-2.32-1.53-2.83-2.81s-.58-2.69-.54-4.06c.17-5.83,2.31-11.37,5.08-16.43c1.34-2.46,2.77-5.44,4.64-7.54c1.96-2.2,2.52,1.06,2.88,2.9.72,3.64,1.29,7.37,1.3,11.09h-.01Z" fill="none" stroke="#000" stroke-width="5" stroke-linecap="round" stroke-linejoin="round"/><path d="M67.65,63.66c-3.97,3.4-8.99,5.94-14.21,5.74-2.16-.08-4.57-.85-5.45-2.83-.56-1.26-.33-2.76.31-3.98s1.67-2.19,2.74-3.05c4.55-3.65,10.15-5.61,15.8-6.79c2.74-.57,5.94-1.42,8.75-1.36s.82,2.61-.34,4.08c-2.3,2.91-4.78,5.76-7.6,8.18v.01Z" fill="none" stroke="#000" stroke-width="5" stroke-linecap="round" stroke-linejoin="round"/><path d="M92.46,101.42c5.04-1.39,10.66-1.55,15.31.85c1.92.99,3.78,2.72,3.73,4.87-.03,1.38-.87,2.64-1.97,3.47s-2.44,1.27-3.78,1.59c-5.67,1.37-11.57.76-17.19-.58-2.73-.65-5.98-1.24-8.5-2.49-2.64-1.32.36-2.71,2.05-3.54c3.32-1.65,6.77-3.18,10.36-4.17h-.01Z" fill="none" stroke="#000" stroke-width="5" stroke-linecap="round" stroke-linejoin="round"/><path d="M83.46,78.42c5.04-1.39,10.66-1.55,15.31.85c1.92.99,3.78,2.72,3.73,4.87-.03,1.38-.87,2.64-1.97,3.47s-2.44,1.27-3.78,1.59c-5.67,1.37-11.57.76-17.19-.58-2.73-.65-5.98-1.24-8.5-2.49s.36-2.71,2.05-3.54c3.32-1.65,6.77-3.18,10.36-4.17h-.01Z" fill="none" stroke="#000" stroke-width="5" stroke-linecap="round" stroke-linejoin="round"/><path d="M94.33,54.91c4.79,1.27,9.2,3.39,11.15,6.45.8,1.26,1.07,2.88-.41,3.96-.95.69-2.43,1.01-3.83,1-1.39,0-2.72-.31-3.96-.67-5.26-1.53-9.37-4.16-12.77-7.05-1.65-1.4-3.75-2.98-4.84-4.62s2.09-1.25,3.94-1.01c3.65.46,7.31,1.03,10.72,1.93v.01Z" fill="none" stroke="#000" stroke-width="5" stroke-linecap="round" stroke-linejoin="round"/><path d="M141.85,125.13c1,5.14.72,10.75-2.03,15.2-1.14,1.84-3,3.56-5.15,3.34-1.37-.14-2.57-1.07-3.3-2.23s-1.08-2.53-1.29-3.89c-.93-5.76.14-11.6,1.9-17.09.86-2.67,1.7-5.87,3.14-8.28c1.52-2.53,2.67.57,3.37,2.31c1.39,3.44,2.65,7,3.36,10.65v-.01Z" transform="matrix(.830327 0.557277-.557277 0.830327 17.906136-84.202532)" fill="none" stroke="#000" stroke-width="5" stroke-linecap="round" stroke-linejoin="round"/></g></g><g id="e1XmWO0ax7w49_tr" transform="translate(176.406204,119.672699) rotate(0)"><g transform="translate(-176.406204,-119.672699)"><path d="M117.84,73.05c13.57,32.86,40.8,81.18,84.62,61.69" fill="none" stroke="#000" stroke-width="5" stroke-linecap="round" stroke-linejoin="round"/><path d="M214.97,124.12c4.43-2.78,9.76-4.56,14.9-3.59c2.12.4,4.4,1.51,4.97,3.59.37,1.33-.07,2.78-.89,3.89s-1.97,1.92-3.16,2.61c-5.04,2.94-10.86,4.06-16.63,4.4-2.8.16-6.08.54-8.86.06-2.91-.5-.43-2.7.94-3.98c2.7-2.54,5.57-5,8.72-6.97l.01-.01Z" fill="none" stroke="#000" stroke-width="5" stroke-linecap="round" stroke-linejoin="round"/><path d="M199.66,145.22c4.56,2.57,8.65,6.42,10.25,11.4.66,2.05.76,4.59-.79,6.08-.99.95-2.48,1.26-3.84,1.07s-2.62-.82-3.8-1.53c-4.99-3.03-8.74-7.62-11.78-12.53-1.48-2.38-3.37-5.1-4.27-7.76s2.17-1.66,3.95-1.07c3.52,1.17,7.05,2.52,10.28,4.35v-.01Z" fill="none" stroke="#000" stroke-width="5" stroke-linecap="round" stroke-linejoin="round"/><path d="M169.05,146.41c2.44,4.63,3.81,10.08,2.46,15.13-.56,2.09-1.84,4.27-3.96,4.69-1.35.26-2.77-.28-3.81-1.18s-1.76-2.11-2.37-3.35c-2.56-5.24-3.23-11.14-3.13-16.91.05-2.8-.08-6.11.61-8.84.72-2.86,2.72-.23,3.9,1.24c2.33,2.89,4.56,5.93,6.3,9.22Z" fill="none" stroke="#000" stroke-width="5" stroke-linecap="round" stroke-linejoin="round"/><path d="M141.85,125.13c1,5.14.72,10.75-2.03,15.2-1.14,1.84-3,3.56-5.15,3.34-1.37-.14-2.57-1.07-3.3-2.23s-1.08-2.53-1.29-3.89c-.93-5.76.14-11.6,1.9-17.09.86-2.67,1.7-5.87,3.14-8.28c1.52-2.53,2.67.57,3.37,2.31c1.39,3.44,2.65,7,3.36,10.65v-.01Z" fill="none" stroke="#000" stroke-width="5" stroke-linecap="round" stroke-linejoin="round"/><path d="M186.93,122.22c1.28-5.07,3.92-10.03,8.3-12.89c1.81-1.18,4.23-1.94,6.08-.83c1.18.71,1.87,2.06,2.04,3.43.17,1.36-.1,2.75-.48,4.07-1.61,5.61-5.06,10.44-8.99,14.66-1.91,2.05-4.03,4.59-6.37,6.16s-2.17-1.65-2.07-3.53c.2-3.7.58-7.46,1.49-11.06v-.01Z" fill="none" stroke="#000" stroke-width="5" stroke-linecap="round" stroke-linejoin="round"/><path d="M162.49,118.68c1.28-5.07,3.92-10.03,8.3-12.89c1.81-1.18,4.23-1.94,6.08-.83c1.18.71,1.87,2.06,2.04,3.43s-.1,2.75-.48,4.07c-1.61,5.61-5.06,10.44-8.99,14.66-1.91,2.05-4.03,4.59-6.37,6.16s-2.17-1.65-2.07-3.53c.2-3.7.58-7.46,1.49-11.06v-.01Z" fill="none" stroke="#000" stroke-width="5" stroke-linecap="round" stroke-linejoin="round"/><path d="M147.41,97.61c3.47-3.54,7.49-6.32,11.11-6.5c1.49-.08,3.03.49,3.24,2.31.14,1.16-.32,2.62-1.02,3.82-.7,1.21-1.61,2.21-2.53,3.11-3.92,3.82-8.24,6.09-12.44,7.62-2.04.74-4.45,1.78-6.4,1.92s-.05-2.43,1.06-3.92c2.2-2.95,4.51-5.85,6.97-8.36h.01Z" fill="none" stroke="#000" stroke-width="5" stroke-linecap="round" stroke-linejoin="round"/></g></g><g id="e1XmWO0ax7w58_ts" transform="translate(243.540001,61.815001) scale(1,1)"><polygon points="217.04,32.72 229.94,55.42 204.23,59.98 229.4,66.91 214.45,88.32 237.15,75.42 241.71,101.12 248.64,75.96 270.04,90.91 257.15,68.21 282.85,63.65 257.68,56.72 272.63,35.32 249.93,48.21 245.38,22.51 238.44,47.68 217.04,32.72" transform="translate(-243.540001,-61.815001)" fill="none" stroke="#000" stroke-width="5" stroke-linecap="round" stroke-linejoin="round"/></g><g id="e1XmWO0ax7w59_ts" transform="translate(151.694988,54.362352) scale(1,1)"><path d="M116.38,43.21c3.87-5.3,9.3-9.21,15.08-12.19c5.5-2.83,12.85-6.52,19.13-6.74.65-.02,1.34,0,1.89.36.82.52,1.11,1.63.93,2.59-1.02,5.43-6.6,11.11-9.98,15.24-4.1,5.02-8.38,10.03-11.05,15.99-.48,1.07-.92,2.25-.7,3.41.41,2.14,3.01,3.26,5.14,2.82s3.84-2,5.34-3.57c7.13-7.46,12.24-16.73,20.12-23.49c3.27-2.81,14.97-11.71,16.89-3.18.9,4-1.23,9.28-1.94,13.22-.99,5.47-1.67,11.05-1.21,16.61.71,8.53,5.09,14.33,10.99,20.17" transform="translate(-151.694988,-54.362352)" fill="none" stroke="#000" stroke-width="5" stroke-linecap="round" stroke-linejoin="round"/></g><circle r="4.55" transform="translate(250.3 142.51)" stroke-width="0"/><g id="e1XmWO0ax7w61_ts" transform="translate(265.300003,123.509998) rotate(-48.315129) scale(1,1)"><circle r="4.55" transform="translate(-0.000003,0.000002)" stroke-width="0"/></g><path d="M256.07,155.7c0,0,27-4.06,26.11-32.03" fill="none" stroke="#000" stroke-width="5" stroke-linecap="round" stroke-linejoin="round"/></svg>
