<svg width="193" height="222" viewBox="0 0 193 222" fill="none" xmlns="http://www.w3.org/2000/svg">
<g clip-path="url(#clip0_454_69)">
<path d="M95.558 14.6779L110.747 27.9231C111.223 28.3288 111.936 28.3008 112.356 27.8392L122.986 16.5381C123.657 15.8248 123.209 14.6639 122.244 14.58L116.79 14.0905C115.95 14.0205 115.461 13.0974 115.88 12.3562L120.944 3.46073C121.531 2.43971 120.398 1.29282 119.363 1.86626L109.614 7.32101C108.901 7.72662 108.006 7.27905 107.894 6.46783L107.111 0.985113C106.971 -0.0359032 105.656 -0.37158 105.041 0.439638L95.3762 13.0695C94.9985 13.559 95.0685 14.2443 95.53 14.6499L95.558 14.6779Z" fill="black"/>
<path d="M34.6797 53.0847C34.6797 53.0847 51.9251 27.867 75.0728 25.2236C86.0662 23.9788 95.0875 28.0069 102.36 37.7415C106.724 43.5879 109.969 50.2175 114.808 55.7002C119.718 61.2669 125.298 66.0083 131.313 69.7986C150.124 81.6732 168.796 80.2466 189.245 76.722C191.58 89.3518 177.664 109.968 170.783 118.598C148.18 146.906 116.123 152.683 86.3039 139.382C77.1987 135.325 68.597 129.032 62.7926 119.87C58.7785 113.534 56.2189 105.702 56.0371 97.7157C55.8413 88.8483 59.6177 80.7221 59.4358 71.7987C59.0862 55.2107 46.4004 51.0707 34.6797 53.0708V53.0847Z" stroke="black" stroke-width="6.99326" stroke-linecap="round" stroke-linejoin="round"/>
<path d="M73.8313 133.814C62.6141 135.996 45.6484 157.144 45.6484 157.144" stroke="black" stroke-width="6.99326" stroke-linecap="round" stroke-linejoin="round"/>
<path d="M106.183 218.38C106.183 218.38 121.68 200.98 105.078 184.238L129.806 167.65L148.073 194.071L138.73 200.435C138.73 200.435 130.324 191.553 130.995 194.63C131.68 197.707 137.009 216.939 106.169 218.38H106.183Z" stroke="black" stroke-width="6.99326" stroke-linecap="round" stroke-linejoin="round"/>
<path d="M3.92746 141.002C3.92746 141.002 18.5713 159.114 37.7888 145.45L50.1529 172.542L21.1169 186.29L16.3475 176.052C16.3475 176.052 26.4737 169.199 23.3408 169.367C20.1938 169.534 0.3609 171.674 3.92746 141.016V141.002Z" stroke="black" stroke-width="6.99326" stroke-linecap="round" stroke-linejoin="round"/>
<path d="M110.979 147.34C107.105 149.787 102.685 153.326 101.594 158.012C99.6922 166.138 109.049 171.606 115.077 174.558" stroke="black" stroke-width="6.99326" stroke-linecap="round" stroke-linejoin="round"/>
<path d="M78.7232 56.2199C82.2379 56.2199 85.0871 53.3707 85.0871 49.8561C85.0871 46.3414 82.2379 43.4922 78.7232 43.4922C75.2086 43.4922 72.3594 46.3414 72.3594 49.8561C72.3594 53.3707 75.2086 56.2199 78.7232 56.2199Z" fill="black"/>
</g>
<defs>
<clipPath id="clip0_454_69">
<rect width="193" height="221.868" fill="white"/>
</clipPath>
</defs>
</svg>
