<svg width="1651" height="314" viewBox="0 0 1651 314" fill="none" xmlns="http://www.w3.org/2000/svg">
<path d="M245.166 192.561C251.222 169.49 257.457 146.69 262.346 123.33C262.588 122.176 263.377 118.8 263.465 119.975C264.622 135.603 266.387 151.168 268.141 166.739C268.233 167.553 268.143 190.451 273.732 190.223C287.398 189.665 305.534 173.694 317.243 167.247C320.33 165.547 331.285 157.62 326.291 166.942C317.989 182.439 308.596 197.356 300.164 212.791C299.508 213.993 291.329 226.148 292.133 229.565C293.936 237.229 306.532 247.073 311.042 253.354C316.769 261.329 326.553 273.572 311.143 270.738C297.456 268.22 283.76 265.631 269.971 263.723C259.242 262.238 259.057 261.862 254.112 270.026C251.758 273.911 231.709 309.049 224.834 306.42C219.48 304.373 222.987 267.365 220.361 259.962C218.664 255.18 213.42 255.257 208.975 254.777C191.915 252.933 174.655 252.581 157.534 251.524C142.844 250.617 154.65 244.214 161.906 238.41C166.076 235.074 188.007 225.641 188.338 221.839C189.808 204.93 186.878 187.543 186.609 170.602C186.456 160.923 199.166 181.731 201.96 184.835C214.152 198.381 224.645 199.88 241.506 199.88" stroke="black" stroke-width="13" stroke-linecap="round"/>
<path d="M377.365 195.478C365.514 214.736 408.211 207.663 393.427 189.378C385.909 180.08 379.089 192.968 371.875 188.158" stroke="black" stroke-width="13" stroke-linecap="round"/>
<path d="M392 138.752C392.24 94.7854 392.634 50.8749 395.66 7" stroke="black" stroke-width="13" stroke-linecap="round"/>
<path d="M392.002 254.035C391.847 270.142 390.172 291.423 390.172 305.272" stroke="black" stroke-width="13" stroke-linecap="round"/>
<path d="M428.602 153.39C452.674 126.294 476.212 98.46 501.797 72.875" stroke="black" stroke-width="13" stroke-linecap="round"/>
<path d="M463.367 230.246C478.883 258.12 494.628 284.124 518.264 305.271" stroke="black" stroke-width="13" stroke-linecap="round"/>
<path d="M545.348 171.69C541.349 182.596 538.862 199.065 553.074 204.018C569.955 209.901 575.832 193.978 567.51 181.958C562.923 175.332 554.949 166.688 546.161 166.2C541.427 165.937 555.78 173.246 556.327 173.52" stroke="black" stroke-width="13" stroke-linecap="round"/>
<path d="M640.453 185.95C647.865 164.185 655.138 140.864 671.071 123.507C672.515 121.934 681.671 113.203 686.305 114.759C695.605 117.881 689.097 147.253 688.643 150.581C687.201 161.159 682.906 180.083 684.269 191.229C686.585 210.169 703.233 218.869 720.393 208.273C750.832 189.478 754.916 145.985 762.022 114.684C763.302 109.042 767.011 87.0711 776.124 86.9309C781.932 86.8416 785.731 93.2587 787.587 97.489C795.879 116.39 792.107 138.352 786.758 157.444C777.553 190.293 756.038 218.285 748.372 251.561C746.655 259.012 744.143 269.003 749.05 276.297C757.326 288.6 783.199 285.865 794.601 284.442C832.909 279.661 861.132 262.556 872.73 224.11C885.012 183.399 883.131 138.844 862.776 101.561C858.761 94.208 841.526 72.0568 851.011 62.572C863.979 49.6044 900.719 66.2408 911.418 74.4121C929.608 88.3042 928.765 110.288 942.866 126.222C954.259 139.096 973.527 138.108 979.216 121.245C984.449 105.733 983.745 88.3597 994.751 77.3533" stroke="black" stroke-width="13" stroke-linecap="round"/>
<path d="M928.232 203.598C927.133 209.455 925.164 214.761 930.72 219.36C940.203 227.207 959.913 224.554 960.584 210.008C961.089 199.076 948.857 196.811 940.449 196.811" stroke="black" stroke-width="13" stroke-linecap="round"/>
<path d="M1000.18 181.88C1011.85 174.74 1023.52 167.598 1035.32 160.688C1035.44 160.622 1040.24 158.803 1038.19 158.803" stroke="black" stroke-width="13" stroke-linecap="round"/>
<path d="M1002.89 200.883C1016.65 208.733 1036.98 217.32 1047.69 228.032" stroke="black" stroke-width="13" stroke-linecap="round"/>
<path d="M973.031 238.893C980.057 254.566 991.147 268.336 998.823 283.689" stroke="black" stroke-width="13" stroke-linecap="round"/>
<path d="M933.667 259.254C925.686 270.976 912.323 283.919 907.875 297.263" stroke="black" stroke-width="13" stroke-linecap="round"/>
<path d="M1224.92 275.38C1219.72 243.163 1203.08 214.942 1183.84 189.03C1177.3 180.218 1174.77 174.105 1163.89 173.265C1152.23 172.364 1140.52 172.171 1128.84 171.593C1119.95 171.152 1107.96 171.772 1100 166.576C1091.58 161.082 1085.95 149.903 1081.6 141.376C1074.87 128.167 1069.51 114.205 1065.72 99.8729C1063.76 92.4464 1063.95 92.8755 1070.38 96.2302C1076.03 99.1773 1081.82 101.882 1087.34 105.068C1088.16 105.54 1094.19 110.638 1095.64 110.741C1096.69 110.817 1101.47 60.4798 1102.62 60.878C1108.85 63.0269 1117.06 70.4488 1121.73 74.0157C1131.13 81.1811 1140.4 88.5519 1148.01 97.6634C1152.72 103.301 1153.66 110.34 1156.49 101.008C1161.15 85.6301 1168.41 70.4721 1170.94 54.5481C1171.1 53.5582 1170.64 50.6466 1172.31 51.9205C1177.97 56.2162 1183.05 62.0996 1187.18 67.8051C1203.89 90.89 1208.14 124.024 1189.99 147.288C1185.32 153.272 1179.32 157.902 1173.87 163.113C1170.87 165.981 1167.66 170.853 1163.66 172.19" stroke="black" stroke-width="13" stroke-linecap="round"/>
<path d="M1227.08 195.838C1230.18 153.723 1242.95 117.538 1264.82 81.3019C1267.68 76.5602 1275.59 63.4767 1275.99 69.0003C1277.35 87.8206 1272.28 109.146 1268.1 127.284C1264.02 145.052 1259.29 166.22 1247.8 181.029C1242.17 188.28 1236.4 195.429 1230.3 202.288" stroke="black" stroke-width="13" stroke-linecap="round"/>
<path d="M1177.63 262.482C1150.91 242.044 1123.04 219.961 1090.93 208.558C1087.65 207.394 1081.22 205.47 1085.55 211.007C1091.42 218.511 1099 225.361 1106.27 231.43C1123.67 245.951 1142.41 251.794 1163.66 257.108" stroke="black" stroke-width="13" stroke-linecap="round"/>
<path d="M1276.52 267.857C1284.72 231.546 1293.42 195.456 1303.87 159.71C1310.89 135.708 1318.15 111.427 1328.12 88.4083C1330.75 82.3267 1336.64 67.5247 1340.54 72.8819C1342.63 75.7463 1342.73 79.6838 1343.05 83.2129C1343.85 91.9793 1343.76 100.806 1343.88 109.608C1344.42 146.983 1343.49 156.819 1344.3 195.54C1344.58 208.545 1344.36 221.606 1345.79 234.535C1346.5 240.898 1346.5 248.271 1350.69 253.107C1357.97 261.5 1368.29 238.589 1373.44 228.742C1390.49 196.149 1400.77 161.242 1412.8 126.687C1416.6 115.756 1421.54 100.273 1428.8 90.2595C1429.08 89.8784 1437.59 80.6038 1441.1 83.0935C1445.84 86.4495 1443.26 105.771 1443.25 105.905C1442.29 116.408 1438.54 139.511 1436.68 150.095C1435.57 156.45 1435.96 163.598 1432.38 168.966" stroke="black" stroke-width="13" stroke-linecap="round"/>
<path d="M597.461 41.7544C599.632 55.3258 602.902 80.8452 614.715 89.5673C627.109 98.718 659.524 70.3807 664.815 60.2559C672.509 45.5299 630.445 40.715 623.238 39.8834C618.485 39.335 601.196 34.2441 603.074 41.7544" stroke="black" stroke-width="13" stroke-linecap="round"/>
<path d="M599.336 270.009C621.061 262.768 641.889 252.892 663.156 244.44C672.458 240.743 668.768 253.909 668.145 260.447C665.009 293.37 621.255 274.465 601.207 270.009" stroke="black" stroke-width="13" stroke-linecap="round"/>
<path d="M342.361 56.6832C335.998 53.7464 330.006 50.0211 323.705 46.9472C305.099 37.8709 286.548 32.2949 265.639 33.0719C231.756 34.3311 201.216 46.6649 175.508 68.2265" stroke="black" stroke-width="13" stroke-linecap="round"/>
<path d="M210.141 106.006C208.767 108.879 210.843 108.644 213.29 107.871C218.275 106.297 217.258 103.739 213.348 101.458C209.741 99.3546 206.132 101.997 209.092 104.956" stroke="black" stroke-width="13" stroke-linecap="round"/>
<path d="M304.165 97.2734C303.732 98.284 301.598 101.984 304.165 102.203C305.556 102.321 307.094 101.277 307.758 100.114C308.966 97.9997 305.669 96.4496 305.669 98.0253" stroke="black" stroke-width="13" stroke-linecap="round"/>
<path d="M448.461 190.098C461.691 188.798 475.047 188.077 488.213 186.715" stroke="black" stroke-width="13" stroke-linecap="round"/>
<path d="M1418.84 232.662C1427.78 216.902 1436.21 198.909 1454.54 192.584C1468.01 187.936 1481.97 192.551 1495.22 195.748C1519.54 201.611 1546.05 210.196 1571.22 204.241C1590.52 199.673 1605.82 184.093 1618.45 169.77C1627.39 159.635 1636.29 148.553 1641.66 136.02C1642.76 133.459 1643.81 126.823 1643.54 134.577C1642.87 154.437 1642.24 174.726 1637.61 194.139C1630.45 224.14 1609.8 246.991 1583.82 262.526C1557.95 277.986 1521.69 290.253 1492.34 277.18C1472.83 268.494 1456.79 252.543 1438.38 241.765C1432.09 238.084 1427.99 236.659 1420.84 236.659" stroke="black" stroke-width="13" stroke-linecap="round"/>
<path d="M1460.8 219.674C1461.15 222.41 1463.7 220.673 1462.8 220.673" stroke="black" stroke-width="13" stroke-linecap="round"/>
<path d="M1538.74 90.7815C1518.97 96.8236 1493.89 114.124 1508.16 137.243C1519.48 155.592 1556.91 150.456 1567.5 133.746C1574.94 121.991 1576.25 94.8362 1561.5 88.0616C1552.25 83.81 1537.83 84.2432 1528.75 88.7832" stroke="black" stroke-width="13" stroke-linecap="round"/>
<path d="M130.634 293.748C118.299 288.265 104.67 283.795 94.2682 274.891C78.3054 261.227 72.1912 239.167 72.1912 219.026C72.1912 196.459 77.8298 174.024 77.4616 151.565C77.3745 146.249 74.015 141.059 72.2498 136.281C67.2947 122.868 63.7376 108.822 62.5875 94.5278C61.309 78.6388 62.924 59.7202 70.9029 45.4549C77.0346 34.4923 79.6612 75.9901 79.6869 77.487C80.121 102.774 76.8474 128.487 73.7138 153.556" stroke="black" stroke-width="13" stroke-linecap="round"/>
<path d="M75.8244 169.367C83.7481 146.024 92.5404 123.836 110.96 106.591C116.642 101.271 139.878 85.3392 132.744 105.302C120.466 139.662 94.3802 162.406 69.5 187.286" stroke="black" stroke-width="13" stroke-linecap="round"/>
<path d="M69.5005 186.232C54.2498 176.617 37.7784 168.244 21.0132 161.637C20.6528 161.495 9.50605 156.142 7.54444 159.411C5.77954 162.353 8.74184 167.877 10.2382 170.011C18.1139 181.241 32.8006 187.414 44.0856 194.43C51.8902 199.282 59.4227 204.424 66.3383 210.475" stroke="black" stroke-width="13" stroke-linecap="round"/>
<path d="M76.875 254.746C88.4439 229.102 102.667 206.975 125.714 190.214C126.147 189.899 134.074 182.84 133.092 188.34C131.009 200.005 122.819 211.79 116.227 221.25C111.066 228.657 105.31 234.579 98.1907 239.989C95.7803 241.821 92.6726 243.653 91.0464 246.314C90.1597 247.765 88.9847 248.985 88.4698 250.53" stroke="black" stroke-width="13" stroke-linecap="round"/>
<path d="M85.3073 252.639C70.3039 249.145 54.8908 248.351 39.5137 248.422C32.6104 248.454 24.7094 248.113 18.3151 251.233C14.6048 253.044 8.97789 258.697 13.806 262.535C22.4218 269.384 40.7125 268.879 51.1085 269.387C59.618 269.802 67.168 269.087 74.7666 265.287" stroke="black" stroke-width="13" stroke-linecap="round"/>
<path d="M21.0072 100.853C20.8858 99.8817 20.6651 100.155 19.9531 99.7988" stroke="black" stroke-width="13" stroke-linecap="round"/>
</svg>
