<svg width="1678" height="339" viewBox="0 0 1678 339" fill="none" xmlns="http://www.w3.org/2000/svg">
<g clip-path="url(#clip0_375_1250)">
<path d="M145.75 299.912C145.75 299.912 109.356 298.088 90.7457 260.304C89.9423 258.653 89.1605 256.96 88.4222 255.179C79.9099 234.615 80.8219 176.418 89.2691 132.705" stroke="black" stroke-width="13.0291" stroke-miterlimit="10" stroke-linecap="round"/>
<path d="M98.1562 257.632C98.1562 257.632 100.154 236.938 113.183 213.051C126.212 189.164 141.413 180.478 147.928 182.65C154.442 184.821 156.614 202.193 143.584 217.394C130.555 232.595 98.1562 257.632 98.1562 257.632Z" stroke="black" stroke-width="13.0291" stroke-linecap="round" stroke-linejoin="round"/>
<path d="M87.8438 187.297C87.8438 187.297 93.316 167.233 110.21 145.887C127.105 124.541 143.543 118.569 149.602 121.804C155.66 125.04 154.857 142.542 139.439 155.311C124.021 168.08 87.8438 187.276 87.8438 187.276V187.297Z" stroke="black" stroke-width="13.0291" stroke-linecap="round" stroke-linejoin="round"/>
<path d="M79.1967 199.066C79.1967 199.066 77.2423 178.35 64.2566 154.441C51.2709 130.533 36.092 121.803 29.5774 123.975C23.0629 126.146 20.8479 143.497 33.8553 158.719C46.8627 173.941 79.1967 199.066 79.1967 199.066Z" stroke="black" stroke-width="13.0291" stroke-linecap="round" stroke-linejoin="round"/>
<path d="M88.4985 133.919C88.4985 133.919 100.789 117.133 106.978 90.6405C113.167 64.1479 107.608 47.5358 101.289 44.8214C94.9696 42.107 81.7885 53.616 81.3976 73.6374C81.0067 93.6589 88.4985 133.919 88.4985 133.919Z" stroke="black" stroke-width="13.0291" stroke-linecap="round" stroke-linejoin="round"/>
<path d="M87.2521 261.979C87.2521 261.979 75.743 244.651 52.9855 229.732C30.2497 214.792 12.7472 214.293 8.01329 219.287C3.27937 224.282 9.55507 240.612 28.2084 247.886C46.8618 255.161 87.2521 261.979 87.2521 261.979Z" stroke="black" stroke-width="13.0291" stroke-linecap="round" stroke-linejoin="round"/>
<path d="M318.703 285.795L305.088 274.611C292.363 264.166 273.21 268.705 266.5 283.732L259.334 299.823C259.073 300.431 258.161 300.279 258.096 299.627L256.381 282.081C254.774 265.708 238.01 255.35 222.657 261.256L206.197 267.575C205.589 267.814 205.046 267.076 205.458 266.555L216.642 252.939C227.087 240.214 222.548 221.061 207.521 214.351L191.43 207.185C190.822 206.925 190.974 206.013 191.626 205.948L209.172 204.232C225.545 202.625 235.903 185.861 229.997 170.508L223.677 154.048C223.439 153.44 224.177 152.897 224.698 153.31L238.314 164.493C251.039 174.938 270.191 170.4 276.901 155.373L284.067 139.282C284.328 138.674 285.24 138.826 285.305 139.477L287.021 157.023C288.628 173.397 305.392 183.755 320.744 177.848L337.205 171.529C337.813 171.29 338.356 172.028 337.943 172.55L326.76 186.165C316.315 198.89 320.853 218.043 335.88 224.753L351.971 231.919C352.579 232.18 352.427 233.092 351.776 233.157L334.23 234.872C317.856 236.479 307.498 253.243 313.405 268.596L319.724 285.056C319.963 285.664 319.224 286.207 318.703 285.795Z" stroke="black" stroke-width="13.0291" stroke-linecap="round" stroke-linejoin="round"/>
<path d="M225.006 113.162C231.602 113.162 236.949 107.815 236.949 101.219C236.949 94.6226 231.602 89.2754 225.006 89.2754C218.41 89.2754 213.062 94.6226 213.062 101.219C213.062 107.815 218.41 113.162 225.006 113.162Z" fill="black"/>
<path d="M1097.96 293.398C1104.56 293.398 1109.9 288.051 1109.9 281.455C1109.9 274.859 1104.56 269.512 1097.96 269.512C1091.36 269.512 1086.02 274.859 1086.02 281.455C1086.02 288.051 1091.36 293.398 1097.96 293.398Z" fill="black"/>
<path d="M609.365 169.621C615.961 169.621 621.309 164.274 621.309 157.678C621.309 151.082 615.961 145.734 609.365 145.734C602.769 145.734 597.422 151.082 597.422 157.678C597.422 164.274 602.769 169.621 609.365 169.621Z" fill="black"/>
<path d="M724.459 302.086C731.055 302.086 736.402 296.739 736.402 290.143C736.402 283.546 731.055 278.199 724.459 278.199C717.863 278.199 712.516 283.546 712.516 290.143C712.516 296.739 717.863 302.086 724.459 302.086Z" fill="black"/>
<path d="M559.42 132.705C566.016 132.705 571.363 127.358 571.363 120.762C571.363 114.166 566.016 108.818 559.42 108.818C552.824 108.818 547.477 114.166 547.477 120.762C547.477 127.358 552.824 132.705 559.42 132.705Z" fill="black"/>
<path d="M748.342 48.0156C754.938 48.0156 760.285 42.6684 760.285 36.0723C760.285 29.4761 754.938 24.1289 748.342 24.1289C741.746 24.1289 736.398 29.4761 736.398 36.0723C736.398 42.6684 741.746 48.0156 748.342 48.0156Z" fill="black"/>
<path d="M29.5684 89.2754C36.1645 89.2754 41.5117 83.9282 41.5117 77.332C41.5117 70.7359 36.1645 65.3887 29.5684 65.3887C22.9722 65.3887 17.625 70.7359 17.625 77.332C17.625 83.9282 22.9722 89.2754 29.5684 89.2754Z" fill="black"/>
<path d="M411.756 182.65C418.352 182.65 423.699 177.303 423.699 170.707C423.699 164.111 418.352 158.764 411.756 158.764C405.16 158.764 399.812 164.111 399.812 170.707C399.812 177.303 405.16 182.65 411.756 182.65Z" fill="black"/>
<path d="M318.381 108.818C324.977 108.818 330.324 103.471 330.324 96.875C330.324 90.2789 324.977 84.9316 318.381 84.9316C311.785 84.9316 306.438 90.2789 306.438 96.875C306.438 103.471 311.785 108.818 318.381 108.818Z" fill="black"/>
<path d="M1423.69 41.502C1430.28 41.502 1435.63 36.1547 1435.63 29.5586C1435.63 22.9625 1430.28 17.6152 1423.69 17.6152C1417.09 17.6152 1411.74 22.9625 1411.74 29.5586C1411.74 36.1547 1417.09 41.502 1423.69 41.502Z" fill="black"/>
<path d="M1486.66 230.426C1493.26 230.426 1498.61 225.079 1498.61 218.482C1498.61 211.886 1493.26 206.539 1486.66 206.539C1480.07 206.539 1474.72 211.886 1474.72 218.482C1474.72 225.079 1480.07 230.426 1486.66 230.426Z" fill="black"/>
<path d="M179.234 65.3867C179.234 65.3867 267.355 -10.6166 358.559 56.7006" stroke="black" stroke-width="13.0291" stroke-linecap="round" stroke-linejoin="round"/>
<path d="M408.5 137.049L415.015 6.75781" stroke="black" stroke-width="13.0291" stroke-linecap="round" stroke-linejoin="round"/>
<path d="M436.375 140.371L501.89 65.3887" stroke="black" stroke-width="13.0291" stroke-linecap="round" stroke-linejoin="round"/>
<path d="M493.304 280.495L436.258 198.867" stroke="black" stroke-width="13.0291" stroke-linecap="round" stroke-linejoin="round"/>
<path d="M397.641 332.487L404.155 202.195" stroke="black" stroke-width="13.0291" stroke-linecap="round" stroke-linejoin="round"/>
<path d="M449.758 169.618L536.554 163.625" stroke="black" stroke-width="13.0291" stroke-linecap="round" stroke-linejoin="round"/>
<path d="M644.844 185.906C652.27 166.319 661.868 147.557 673.399 130.054C679.306 121.086 688.144 111.379 698.719 113.29C705.69 114.528 710.901 120.803 712.986 127.579C715.071 134.354 714.615 141.585 714.159 148.664C713.377 160.369 712.617 172.051 711.835 183.756C711.531 188.251 711.336 193.137 713.898 196.872C717.134 201.584 723.974 202.713 729.338 200.715C734.701 198.718 738.762 194.309 742.063 189.641C756.721 169.011 759.782 142.649 767.839 118.654C769.88 112.573 772.355 106.45 776.655 101.694C780.955 96.9384 787.491 93.7463 793.81 94.9189C800.629 96.2001 805.775 102.345 807.643 109.012C809.51 115.679 808.642 122.845 807.165 129.62C801.997 153.42 789.793 175.135 783.104 198.544C778.457 214.809 776.525 231.855 777.393 248.749C777.936 259.347 779.847 270.486 786.753 278.543C793.484 286.404 804.255 290.139 814.592 289.791C824.928 289.444 834.895 285.405 843.647 279.867C867.642 264.688 883.364 238.326 889.031 210.509C894.699 182.692 891.029 153.55 882.365 126.515C876.154 107.166 867.273 87.6008 869.727 67.4274C870.226 63.3884 871.29 59.1756 874.156 56.2875C876.784 53.66 880.541 52.5091 884.232 52.053C904.905 49.5558 923.298 66.5805 932.266 85.3859C937.63 96.6344 941.191 109.425 950.616 117.568C965.469 130.402 989.594 125.928 1004.4 113.029C1019.21 100.131 1026.94 81.1514 1034.18 62.8889" stroke="black" stroke-width="13.0291" stroke-linecap="round" stroke-linejoin="round"/>
<path d="M963.324 223.911C975.917 223.911 986.125 213.702 986.125 201.11C986.125 188.517 975.917 178.309 963.324 178.309C950.732 178.309 940.523 188.517 940.523 201.11C940.523 213.702 950.732 223.911 963.324 223.911Z" stroke="black" stroke-width="13.0291" stroke-linecap="round" stroke-linejoin="round"/>
<path d="M1574.61 152.249C1599.8 152.249 1620.21 131.832 1620.21 106.647C1620.21 81.4616 1599.8 61.0449 1574.61 61.0449C1549.42 61.0449 1529.01 81.4616 1529.01 106.647C1529.01 131.832 1549.42 152.249 1574.61 152.249Z" stroke="black" stroke-width="13.0291" stroke-linecap="round" stroke-linejoin="round"/>
<path d="M1252.9 293.397C1252.9 293.397 1243.43 217.568 1199.48 170.793" stroke="black" stroke-width="13.0291" stroke-linecap="round" stroke-linejoin="round"/>
<path d="M1088.18 91.4466L1125.1 106.647L1131.62 41.5016L1179.39 78.4175L1192.42 39.3301C1202.86 49.2539 1212.18 60.915 1219.67 73.1841C1225.16 82.1959 1230.22 92.4021 1231.51 103.021C1233.81 121.739 1223.14 141.891 1211.31 155.745C1199.76 169.274 1185.08 171.728 1168.07 172.488C1151.01 173.248 1133.03 170.599 1118.56 160.957C1085.99 139.242 1088.16 91.4683 1088.16 91.4683L1088.18 91.4466Z" stroke="black" stroke-width="13.0291" stroke-linecap="round" stroke-linejoin="round"/>
<path d="M1435.64 232.596C1435.64 232.596 1455.18 186.994 1481.24 186.994C1499.09 186.994 1516.31 192.662 1533.55 196.549C1569.66 204.692 1603.97 206.364 1632.88 179.415C1639.22 173.509 1645.15 167.103 1650.57 160.371C1653.61 156.593 1656.48 152.705 1659.13 148.645C1660.3 146.842 1666.43 139.068 1665.8 137.049C1665.8 137.049 1694.03 228.253 1624.54 269.512C1605.41 280.869 1581.74 289.251 1559.39 291.227C1542.02 292.769 1519.85 284.604 1505.99 273.095C1495.96 264.756 1486.23 256.331 1475.25 249.164C1468.77 244.952 1462.04 241.043 1454.94 237.938C1453.27 237.221 1436.46 230.576 1435.59 232.596H1435.64Z" stroke="black" stroke-width="13.0291" stroke-linecap="round" stroke-linejoin="round"/>
<path d="M1255.4 204.366C1255.4 204.366 1244.54 126.192 1301 67.5605C1301 67.5605 1318.37 139.221 1255.4 204.366Z" stroke="black" stroke-width="13.0291" stroke-linecap="round" stroke-linejoin="round"/>
<path d="M1214.75 256.57C1214.75 256.57 1148.76 255.028 1105.78 208.037C1105.78 208.037 1167.02 204.171 1214.75 256.57Z" stroke="black" stroke-width="13.0291" stroke-linecap="round" stroke-linejoin="round"/>
<path d="M1311.89 243.39L1370.8 59.5493C1372.02 55.7274 1377.64 56.4006 1377.93 60.4179L1389.04 218.635C1389.31 222.392 1394.39 223.325 1395.99 219.938L1469.37 64.0009C1471.06 60.4179 1476.45 61.7208 1476.32 65.673L1474.06 135.401" stroke="black" stroke-width="13.0291" stroke-linecap="round" stroke-linejoin="round"/>
<path d="M944.864 251.223L927.492 299.908" stroke="black" stroke-width="13.0291" stroke-linecap="round" stroke-linejoin="round"/>
<path d="M993.758 246.125L1017.6 291.988" stroke="black" stroke-width="13.0291" stroke-linecap="round" stroke-linejoin="round"/>
<path d="M1023.57 212.426L1070.3 234.488" stroke="black" stroke-width="13.0291" stroke-linecap="round" stroke-linejoin="round"/>
<path d="M1017.53 165.976L1063.31 141.959" stroke="black" stroke-width="13.0291" stroke-linecap="round" stroke-linejoin="round"/>
<path d="M582.447 51.774L598.755 96.2684C600.319 100.525 605.378 102.305 609.244 99.9383L658.19 70.2753C663.727 66.9095 662.359 58.5274 656.062 57.0942L590.808 42.2627C585.248 41.0032 580.493 46.4103 582.447 51.774Z" stroke="black" stroke-width="13.0291" stroke-linecap="round" stroke-linejoin="round"/>
<path d="M673.873 254.697L634.069 228.987C630.268 226.533 625.144 228.161 623.472 232.374L602.256 285.511C599.845 291.526 605.991 297.411 611.897 294.762L672.917 267.314C678.129 264.969 678.672 257.781 673.873 254.697Z" stroke="black" stroke-width="13.0291" stroke-linecap="round" stroke-linejoin="round"/>
<path d="M554.026 197.875L563.407 223.238L588.748 232.619L563.407 242L554.026 267.342L544.645 242L519.281 232.619L544.645 223.238L554.026 197.875Z" stroke="black" stroke-width="13.0291" stroke-linecap="round" stroke-linejoin="round"/>
<path d="M1366.17 254.336L1375.56 279.699L1400.9 289.08L1375.56 298.461L1366.17 323.803L1356.79 298.461L1331.43 289.08L1356.79 279.699L1366.17 254.336Z" stroke="black" stroke-width="13.0291" stroke-linecap="round" stroke-linejoin="round"/>
<path d="M986.158 6.7832L995.539 32.1466L1020.88 41.5275L995.539 50.9085L986.158 76.2502L976.777 50.9085L951.414 41.5275L976.777 32.1466L986.158 6.7832Z" stroke="black" stroke-width="13.0291" stroke-linecap="round" stroke-linejoin="round"/>
</g>
<defs>
<clipPath id="clip0_375_1250">
<rect width="1678" height="338.757" fill="white" transform="translate(0 0.242188)"/>
</clipPath>
</defs>
</svg>
